<svg fill='white' xmlns="http://www.w3.org/2000/svg" width="512" height="512" enable-background="new 0 0 512 512" viewBox="0 0 512 512" id="menu"><path d="M485.883 429.051H166.832c-4.971 0-9-4.029-9-9s4.029-9 9-9h319.051c4.971 0 9 4.029 9 9S490.854 429.051 485.883 429.051zM485.883 265.352H166.832c-4.971 0-9-4.029-9-9s4.029-9 9-9h319.051c4.971 0 9 4.029 9 9S490.854 265.352 485.883 265.352zM485.883 101.658H166.832c-4.971 0-9-4.029-9-9s4.029-9 9-9h319.051c4.971 0 9 4.029 9 9S490.854 101.658 485.883 101.658zM68.803 143.674c-28.134 0-51.022-22.886-51.022-51.016 0-28.134 22.888-51.022 51.022-51.022 28.131 0 51.017 22.889 51.017 51.022C119.82 120.788 96.934 143.674 68.803 143.674zM68.803 59.636c-18.208 0-33.022 14.813-33.022 33.022 0 18.205 14.813 33.016 33.022 33.016 18.206 0 33.017-14.811 33.017-33.016C101.82 74.449 87.009 59.636 68.803 59.636zM68.803 307.373c-28.134 0-51.022-22.888-51.022-51.021s22.888-51.022 51.022-51.022c28.131 0 51.017 22.889 51.017 51.022S96.934 307.373 68.803 307.373zM68.803 223.329c-18.208 0-33.022 14.813-33.022 33.022 0 18.208 14.813 33.021 33.022 33.021 18.206 0 33.017-14.813 33.017-33.021C101.82 238.143 87.009 223.329 68.803 223.329zM68.803 471.066c-28.134 0-51.022-22.886-51.022-51.016 0-28.134 22.888-51.021 51.022-51.021 28.131 0 51.017 22.888 51.017 51.021C119.82 448.181 96.934 471.066 68.803 471.066zM68.803 387.029c-18.208 0-33.022 14.813-33.022 33.021 0 18.205 14.813 33.016 33.022 33.016 18.206 0 33.017-14.811 33.017-33.016C101.82 401.843 87.009 387.029 68.803 387.029z"></path></svg>