<svg xmlns="http://www.w3.org/2000/svg" xmlns:xlink="http://www.w3.org/1999/xlink" viewBox="0 0 1711.953 1222.404"><defs><linearGradient id="a" x1="1401.437" x2="1551.194" y1="646.447" y2="646.447" gradientUnits="userSpaceOnUse"><stop offset="0" stop-color="#cfd5f1"/><stop offset=".283" stop-color="#e1e5f6"/><stop offset=".719" stop-color="#f7f8fd"/><stop offset="1" stop-color="#fff"/></linearGradient><linearGradient id="h" x1="945.197" x2="1129.493" y1="1037.769" y2="1037.769" xlink:href="#a"/><linearGradient id="i" x1="1007.865" x2="1113.887" y1="1066.674" y2="1066.674" xlink:href="#a"/><linearGradient id="j" x1="251.479" x2="445.28" y1="782.824" y2="782.824" gradientUnits="userSpaceOnUse"><stop offset="0" stop-color="#c4cae9"/><stop offset=".082" stop-color="#cacfeb"/><stop offset=".684" stop-color="#f0f2fa"/><stop offset="1" stop-color="#fff"/></linearGradient><linearGradient id="k" x1="269.831" x2="350.006" y1="657.549" y2="657.549" xlink:href="#a"/><linearGradient id="l" x1="1131.623" x2="1289.847" y1="267.312" y2="541.364" gradientTransform="translate(-628.294)" gradientUnits="userSpaceOnUse"><stop offset=".455" stop-color="#ff826a"/><stop offset=".512" stop-color="#f87066"/><stop offset=".626" stop-color="#e5405d"/><stop offset=".635" stop-color="#e33c5c"/></linearGradient><linearGradient id="m" x1="612.724" x2="1559.002" y1="693.807" y2="693.807" gradientUnits="userSpaceOnUse"><stop offset="0" stop-color="#c4c9e4"/><stop offset=".236" stop-color="#cacee7"/><stop offset=".541" stop-color="#daddee"/><stop offset=".881" stop-color="#f4f5fa"/><stop offset="1" stop-color="#fff"/></linearGradient><linearGradient id="n" x1="1026.467" x2="1403.258" y1="47.54" y2="700.16" gradientUnits="userSpaceOnUse"><stop offset=".576" stop-color="#807cfb"/><stop offset=".612" stop-color="#1f196f"/></linearGradient><linearGradient id="o" x1="592.232" x2="1358.128" y1="775.954" y2="775.954" gradientUnits="userSpaceOnUse"><stop offset=".562" stop-color="#5652cc"/><stop offset=".612" stop-color="#1f196f"/></linearGradient><linearGradient id="p" x1="1218.326" x2="1504.084" y1="909.609" y2="909.609" gradientUnits="userSpaceOnUse"><stop offset="0" stop-color="#dae0f5"/><stop offset=".327" stop-color="#dee3f6"/><stop offset=".66" stop-color="#eaeef9"/><stop offset=".996" stop-color="#fff"/><stop offset="1" stop-color="#fff"/></linearGradient><linearGradient id="q" x1="1469.991" x2="1481.876" y1="820.88" y2="840.611" gradientUnits="userSpaceOnUse"><stop offset="0" stop-color="#6b67e9"/><stop offset="1" stop-color="#362e93"/></linearGradient><linearGradient id="r" x1="1231.997" x2="1220.827" y1="982.656" y2="963.06" gradientUnits="userSpaceOnUse"><stop offset="0" stop-color="#bbc0e6"/><stop offset="1" stop-color="#f6f6fb"/></linearGradient><linearGradient id="s" x1="1213.281" x2="1208.577" y1="985.989" y2="979.913" gradientUnits="userSpaceOnUse"><stop offset="0" stop-color="#362e93"/><stop offset="1" stop-color="#807cfb"/></linearGradient><linearGradient id="t" x1="1463.962" x2="1450.92" y1="850.686" y2="828.758" gradientUnits="userSpaceOnUse"><stop offset=".074" stop-color="#a3a9d0"/><stop offset=".137" stop-color="#ced3f8"/><stop offset=".559" stop-color="#ced3f8"/><stop offset=".69" stop-color="#f6f6fb"/></linearGradient><linearGradient id="b" x1="1456.955" x2="1440.743" y1="855.665" y2="835.068" gradientUnits="userSpaceOnUse"><stop offset=".559" stop-color="#d1d7f3"/><stop offset=".69" stop-color="#f1f1f6"/></linearGradient><linearGradient id="u" x1="1460.125" x2="1443.912" y1="853.834" y2="833.236" xlink:href="#b"/><linearGradient id="v" x1="1463.3" x2="1447.086" y1="852.002" y2="831.404" xlink:href="#b"/><linearGradient id="w" x1="352.332" x2="30.387" y1="764.295" y2="665.303" gradientTransform="matrix(-1 0 0 1 865.136 0)" gradientUnits="userSpaceOnUse"><stop offset="0" stop-color="#5652cc"/><stop offset="1" stop-color="#807dfb"/></linearGradient><linearGradient id="x" x1="-4.816" x2="266.585" y1="914.46" y2="444.38" gradientTransform="matrix(-1 0 0 1 865.136 0)" gradientUnits="userSpaceOnUse"><stop offset=".396" stop-color="#20196f"/><stop offset=".479" stop-color="#362e94"/></linearGradient><linearGradient id="c" x1="530.568" x2="603.954" y1="940.687" y2="940.687" gradientTransform="translate(21.463)" gradientUnits="userSpaceOnUse"><stop offset="0" stop-color="#c6cbe7"/><stop offset=".077" stop-color="#ced2ea"/><stop offset=".398" stop-color="#e9ebf6"/><stop offset=".682" stop-color="#f9fafd"/><stop offset=".899" stop-color="#fff"/></linearGradient><linearGradient id="y" x1="530.567" x2="603.957" y1="921.209" y2="921.209" gradientTransform="translate(-11.626)" xlink:href="#c"/><linearGradient id="d" x1="45.523" x2="72.573" y1="918.628" y2="918.628" gradientTransform="matrix(-1 0 0 1 583.395 0)" gradientUnits="userSpaceOnUse"><stop offset="0" stop-color="#6a6ae2"/><stop offset=".284" stop-color="#5857c7"/><stop offset=".756" stop-color="#3e3c9e"/><stop offset="1" stop-color="#34318f"/></linearGradient><linearGradient id="z" x1="12.076" x2="39.128" y1="938.097" y2="938.097" xlink:href="#d"/><linearGradient id="A" x1="23.821" x2="70.327" y1="873.461" y2="873.461" gradientTransform="matrix(-1 0 0 1 583.395 0)" gradientUnits="userSpaceOnUse"><stop offset="0" stop-color="#3366a3"/><stop offset=".016" stop-color="#4a5abb"/><stop offset=".027" stop-color="#5555c6"/><stop offset="1" stop-color="#1e1c6b"/></linearGradient><linearGradient id="B" x1="22.025" x2="70.603" y1="790.003" y2="790.003" gradientTransform="matrix(-1 0 0 1 583.395 0)" gradientUnits="userSpaceOnUse"><stop offset="0" stop-color="#e33c5c"/><stop offset=".156" stop-color="#e4425d"/><stop offset=".36" stop-color="#e8525f"/><stop offset=".591" stop-color="#ef6d63"/><stop offset=".84" stop-color="#f89369"/><stop offset="1" stop-color="#ffaf6d"/></linearGradient><linearGradient id="C" x1="35.849" x2="-35.264" y1="769.891" y2="730.423" gradientTransform="matrix(-1 0 0 1 583.395 0)" gradientUnits="userSpaceOnUse"><stop offset="0" stop-color="#ff5a72"/><stop offset=".407" stop-color="#fc5770"/><stop offset=".711" stop-color="#f34d69"/><stop offset=".981" stop-color="#e43d5d"/><stop offset="1" stop-color="#e33c5c"/></linearGradient><linearGradient id="D" x1="-167.544" x2="-56.806" y1="201.538" y2="394.619" gradientTransform="matrix(-1 0 0 1 616.338 0)" gradientUnits="userSpaceOnUse"><stop offset="0" stop-color="#00b6bf"/><stop offset=".199" stop-color="#00adb8"/><stop offset=".63" stop-color="#009fae"/><stop offset="1" stop-color="#009aaa"/></linearGradient><linearGradient id="e" x1="223.384" x2="418.133" y1="894.151" y2="894.151" gradientUnits="userSpaceOnUse"><stop offset="0" stop-color="#c4c9e4"/><stop offset=".254" stop-color="#ced2e8"/><stop offset=".677" stop-color="#e7e9f4"/><stop offset="1" stop-color="#fff"/></linearGradient><linearGradient id="f" x1="217.893" x2="315.255" y1="451.333" y2="282.697" gradientTransform="rotate(-120.001 425.847 635.643)" gradientUnits="userSpaceOnUse"><stop offset=".409" stop-color="#bbc0e6"/><stop offset=".413" stop-color="#bcc1e7"/><stop offset=".565" stop-color="#ced3f8"/></linearGradient><linearGradient id="E" x1="216.866" x2="314.229" y1="450.74" y2="282.104" gradientTransform="rotate(-120.001 425.847 635.643)" gradientUnits="userSpaceOnUse"><stop offset=".409" stop-color="#5652cc"/><stop offset=".496" stop-color="#706ce9"/><stop offset=".565" stop-color="#807dfb"/></linearGradient><linearGradient id="F" x1="640.464" x2="850.099" y1="1052.668" y2="1052.668" xlink:href="#e"/><linearGradient id="G" x1="-547.372" x2="-442.56" y1="828.383" y2="646.842" gradientTransform="rotate(-120.001 216.909 553.975)" xlink:href="#f"/><linearGradient id="g" x1="-115.566" x2="-15.651" y1="1009.622" y2="836.564" gradientTransform="matrix(-1 -.5774 -.866 .5 1474.413 607.64)" gradientUnits="userSpaceOnUse"><stop offset=".409" stop-color="#bbc0e6"/><stop offset=".565" stop-color="#c4cae9"/></linearGradient><linearGradient id="H" x1="-42.862" x2="3.326" y1="944.644" y2="864.645" xlink:href="#g"/><linearGradient id="I" x1="-46.758" x2="-26.037" y1="905.726" y2="869.836" xlink:href="#g"/><linearGradient id="J" x1="377.21" x2="513.051" y1="1065.791" y2="1065.791" gradientUnits="userSpaceOnUse"><stop offset=".331" stop-color="#c4c9e5"/><stop offset=".584" stop-color="#d7dbed"/><stop offset="1" stop-color="#fff"/></linearGradient><linearGradient id="K" x1="407.695" x2="448.734" y1="1050.099" y2="1050.099" gradientUnits="userSpaceOnUse"><stop offset="0" stop-color="#bbbfe2"/><stop offset="1" stop-color="#dce0f7"/></linearGradient><linearGradient id="L" x1="396.104" x2="422.285" y1="1080.335" y2="1080.335" gradientUnits="userSpaceOnUse"><stop offset="0" stop-color="#bbbfe2"/><stop offset="1" stop-color="#ced2f4"/></linearGradient><linearGradient id="M" x1="736.495" x2="749.403" y1="399.806" y2="421.394" gradientTransform="rotate(120.001 401.249 659.789)" gradientUnits="userSpaceOnUse"><stop offset="0" stop-color="#ced2f4"/><stop offset="1" stop-color="#bbbfe2"/></linearGradient><linearGradient id="N" x1="461.317" x2="479.172" y1="1059.968" y2="1059.968" gradientUnits="userSpaceOnUse"><stop offset=".404" stop-color="#bbbfe2"/><stop offset="1" stop-color="#ced2f4"/></linearGradient></defs><g style="isolation:isolate"><path style="mix-blend-mode:multiply" fill="url(#a)" d="M1493.05 612.871h-91.613l58.152 33.582-58.152 33.57h91.613l58.144-33.57-58.144-33.582z"/><path fill="#bbc0e6" d="m1401.437 680.023 58.152-33.57V578.28l-58.152 33.56v68.183z"/><path fill="#ced3f8" d="m1401.437 680.023-58.153-33.57V578.28l58.153 33.56v68.183z"/><path fill="#f6f6fb" d="m1401.437 611.84-58.153-33.56 58.153-33.565 58.152 33.565-58.152 33.56z"/><path style="mix-blend-mode:multiply" fill="url(#h)" d="M1057.94 996.449H945.197l71.563 41.327-71.563 41.313h112.743l71.553-41.313-71.553-41.327z"/><path fill="#e33c5c" d="m945.197 1079.089 71.563-41.313v-83.895l-71.563 41.299v83.909z"/><path fill="#ff5a72" d="m945.197 1079.089-71.565-41.313v-83.895l71.565 41.299v83.909z"/><path fill="#ffaf6d" d="m945.197 995.18-71.565-41.299 71.565-41.306 71.563 41.306-71.563 41.299z"/><path style="mix-blend-mode:multiply" fill="url(#i)" d="M1072.724 1042.903h-64.859l41.169 23.775-41.169 23.766h64.859l41.163-23.766-41.163-23.775z"/><path fill="#423eaf" d="m1007.865 1090.444 41.169-23.766v-48.264l-41.169 23.759v48.271z"/><path fill="#5652cc" d="m1007.865 1090.444-41.169-23.766v-48.264l41.169 23.759v48.271z"/><path fill="#807dfb" d="m1007.865 1042.173-41.169-23.759 41.169-23.762 41.169 23.762-41.169 23.759z"/><path d="m966.696 1018.414 14.282 8.243 41.17-23.759-14.285-8.245-41.167 23.761z" style="mix-blend-mode:multiply" fill="#dae0f5"/><path d="m988.195 1079.089-7.217-52.432-14.282-8.243v48.264l21.499 12.411z" style="mix-blend-mode:multiply" fill="#dae0f5"/><path style="mix-blend-mode:multiply" fill="url(#j)" d="M251.479 724.27H445.28v117.108H251.479z"/><path fill="#f6f6fb" d="m251.479 727.613-98.528-56.885 98.528-56.887 98.527 56.887-98.527 56.885z"/><path fill="#ced3f8" d="m251.479 841.378-98.528-56.885V670.728l98.528 56.885v113.765z"/><path fill="#bbc0e6" d="m251.479 841.378 98.53-56.885V670.728l-98.53 56.885v113.765z"/><path fill="#dae0f5" d="m251.479 632.898-7.878-4.548 7.878-4.549 7.88 4.549-7.88 4.548zM269.83 643.493l-7.877-4.549 7.877-4.548 7.88 4.548-7.88 4.549zM288.184 654.087l-7.883-4.548 7.883-4.551 7.872 4.551-7.872 4.548zM306.53 664.682l-7.877-4.551 7.877-4.548 7.88 4.548-7.88 4.551zM324.881 675.274l-7.88-4.546 7.88-4.548 7.88 4.548-7.88 4.546zM233.128 643.493l-7.878-4.549 7.878-4.548 7.88 4.548-7.88 4.549zM251.479 654.087l-7.878-4.548 7.878-4.551 7.88 4.551-7.88 4.548zM269.83 664.682l-7.877-4.551 7.877-4.548 7.88 4.548-7.88 4.551zM288.184 675.274l-7.883-4.546 7.883-4.548 7.872 4.548-7.872 4.546zM306.53 685.868l-7.877-4.548 7.877-4.548 7.88 4.548-7.88 4.548zM214.782 654.087l-7.881-4.548 7.881-4.551 7.88 4.551-7.88 4.548zM233.128 664.682l-7.878-4.551 7.878-4.548 7.88 4.548-7.88 4.551zM251.479 675.274l-7.878-4.546 7.878-4.548 7.88 4.548-7.88 4.546zM269.83 685.868l-7.877-4.548 7.877-4.548 7.88 4.548-7.88 4.548zM288.184 696.46l-7.883-4.545 7.883-4.548 7.872 4.548-7.872 4.545zM196.43 664.682l-7.88-4.551 7.88-4.548 7.88 4.548-7.88 4.551zM214.782 675.274l-7.881-4.546 7.881-4.548 7.88 4.548-7.88 4.546zM233.128 685.868l-7.878-4.548 7.878-4.548 7.88 4.548-7.88 4.548zM251.479 696.46l-7.878-4.545 7.878-4.548 7.88 4.548-7.88 4.545zM269.83 707.06l-7.877-4.551 7.877-4.548 7.88 4.548-7.88 4.551zM178.079 675.274l-7.878-4.546 7.878-4.548 7.88 4.548-7.88 4.546zM196.43 685.868l-7.88-4.548 7.88-4.548 7.88 4.548-7.88 4.548zM214.782 696.46l-7.881-4.545 7.881-4.548 7.88 4.548-7.88 4.545zM233.128 707.06l-7.878-4.551 7.878-4.548 7.88 4.548-7.88 4.551zM251.479 717.652l-7.878-4.545 7.878-4.551 7.88 4.551-7.88 4.545zM169.458 699.309l-7.88-4.548v-9.097l7.88 4.548v9.097zM187.804 709.901l-7.875-4.546v-9.099l7.875 4.551v9.094zM206.155 720.498l-7.878-4.551v-9.093l7.878 4.545v9.099zM224.506 731.093l-7.877-4.551v-9.094l7.877 4.548v9.097zM242.857 741.687l-7.877-4.55v-9.097l7.877 4.548v9.099zM169.458 720.496l-7.88-4.549v-9.093l7.88 4.545v9.097zM187.804 731.09l-7.875-4.548v-9.094l7.875 4.548v9.094zM206.155 741.687l-7.878-4.55v-9.097l7.878 4.548v9.099zM224.506 752.282l-7.877-4.551v-9.094l7.877 4.546v9.099zM242.857 762.877l-7.877-4.549v-9.099l7.877 4.551v9.097zM169.458 741.685l-7.88-4.548v-9.097l7.88 4.548v9.097zM187.804 752.282l-7.875-4.551v-9.094l7.875 4.546v9.099zM206.155 762.877l-7.878-4.549v-9.099l7.878 4.551v9.097zM224.506 773.471l-7.877-4.551v-9.094l7.877 4.549v9.096zM242.857 784.066l-7.877-4.551v-9.096l7.877 4.548v9.099zM169.458 762.874l-7.88-4.546v-9.099l7.88 4.551v9.094zM187.804 773.471l-7.875-4.551v-9.094l7.875 4.549v9.096zM206.155 784.066l-7.878-4.551v-9.096l7.878 4.548v9.099zM224.506 794.663l-7.877-4.553v-9.097l7.877 4.548v9.102zM242.857 805.252l-7.877-4.548v-9.099l7.877 4.551v9.096zM169.458 784.066l-7.88-4.551v-9.096l7.88 4.548v9.099zM187.804 794.663l-7.875-4.553v-9.097l7.875 4.548v9.102zM206.155 805.252l-7.878-4.548v-9.099l7.878 4.551v9.096zM224.506 815.847l-7.877-4.548v-9.1l7.877 4.551v9.097zM242.857 826.441l-7.877-4.548v-9.096l7.877 4.551v9.093zM333.505 699.309l7.878-4.548v-9.097l-7.878 4.548v9.097zM315.156 709.901l7.878-4.546v-9.099l-7.878 4.551v9.094zM296.805 720.498l7.878-4.551v-9.093l-7.878 4.545v9.099zM278.454 731.093l7.877-4.551v-9.094l-7.877 4.548v9.097zM260.103 741.687l7.88-4.55v-9.097l-7.88 4.548v9.099zM333.505 720.496l7.878-4.549v-9.093l-7.878 4.545v9.097zM315.156 731.09l7.878-4.548v-9.094l-7.878 4.548v9.094zM296.805 741.687l7.878-4.55v-9.097l-7.878 4.548v9.099zM278.454 752.282l7.877-4.551v-9.094l-7.877 4.546v9.099zM260.103 762.877l7.88-4.549v-9.099l-7.88 4.551v9.097zM333.505 741.685l7.878-4.548v-9.097l-7.878 4.548v9.097zM315.156 752.282l7.878-4.551v-9.094l-7.878 4.546v9.099zM296.805 762.877l7.878-4.549v-9.099l-7.878 4.551v9.097zM278.454 773.471l7.877-4.551v-9.094l-7.877 4.549v9.096zM260.103 784.066l7.88-4.551v-9.096l-7.88 4.548v9.099zM333.505 762.874l7.878-4.546v-9.099l-7.878 4.551v9.094zM315.156 773.471l7.878-4.551v-9.094l-7.878 4.549v9.096zM296.805 784.066l7.878-4.551v-9.096l-7.878 4.548v9.099zM278.454 794.663l7.877-4.553v-9.097l-7.877 4.548v9.102zM260.103 805.252l7.88-4.548v-9.099l-7.88 4.551v9.096zM333.505 784.066l7.878-4.551v-9.096l-7.878 4.548v9.099zM315.156 794.663l7.878-4.553v-9.097l-7.878 4.548v9.102zM296.805 805.252l7.878-4.548v-9.099l-7.878 4.551v9.096zM278.454 815.847l7.877-4.548v-9.1l-7.877 4.551v9.097zM260.103 826.441l7.88-4.548v-9.096l-7.88 4.551v9.093z"/><path style="mix-blend-mode:multiply" fill="url(#k)" d="M286.011 633.779h-16.18l41.17 23.775-41.17 23.766h61.83l18.345-10.592-63.995-36.949z"/><path fill="#009aaa" d="m269.831 681.32 41.17-23.766V609.29l-41.17 23.759v48.271z"/><path fill="#00b6bf" d="m269.831 681.32-41.169-23.766V609.29l41.169 23.759v48.271z"/><path fill="#00d6dc" d="m269.831 633.049-41.169-23.759 41.169-23.762 41.17 23.762-41.17 23.759z"/><path fill="#f6f6fb" d="M634.271 412.928c0-13.408-9.502-29.858-21.113-36.565l-140.645-81.197c-11.61-6.697-21.108-1.217-21.108 12.192v134.184c0 13.413 9.497 29.863 21.108 36.565l140.645 81.198c11.611 6.706 21.113 1.225 21.113-12.178Z"/><path fill="url(#l)" d="M634.271 547.127V412.928c0-13.408-9.502-29.858-21.113-36.565l-140.645-81.197c-5.736-3.306-10.95-3.636-14.764-1.514l5.527-3.215.013.018c3.86-2.47 9.285-2.294 15.3 1.18l140.644 81.198c11.61 6.701 21.109 23.156 21.109 36.565v134.184c0 7.023-2.62 11.839-6.758 13.896l-5.012 2.927c3.521-2.327 5.7-6.888 5.7-13.278Z"/><path fill="#ced3f8" d="M493.972 405.606v-11.048a11.338 11.338 0 0 0 4.385 1.519 3.128 3.128 0 0 0 2.55-1.312 8.387 8.387 0 0 0 1.476-4.05 57.52 57.52 0 0 0 .32-7.504q0-8.93.717-12.038.718-3.107 2.59-4.165 1.873-1.06 5.462-.231a33.51 33.51 0 0 1 7.655 3.59l2.113 1.22v11.002q-4.425-2.555-5.682-2.704a1.84 1.84 0 0 0-1.853.679q-.598.829-.598 3.683 0 2.899-.359 10.794a24.595 24.595 0 0 1-1.036 6.79 7.85 7.85 0 0 1-2.133 3.44 8.191 8.191 0 0 1-3.967 1.532 33.581 33.581 0 0 1 3.847 5.88 28.264 28.264 0 0 1 2.292 6.41 49.285 49.285 0 0 1 1.037 8.609q.278 7.802.28 9.92a12.77 12.77 0 0 0 .637 4.603 9.466 9.466 0 0 0 1.934 2.935 27.926 27.926 0 0 0 5.6 3.855v11.048l-2.112-1.22a47.283 47.283 0 0 1-8.252-5.754A25.451 25.451 0 0 1 506.03 447a22.354 22.354 0 0 1-2.651-7.215 67.242 67.242 0 0 1-.678-11.049q0-8.469-.638-11.37a18.986 18.986 0 0 0-2.65-6.801 18.497 18.497 0 0 0-5.442-4.96ZM585.904 458.683a11.343 11.343 0 0 0-4.385-1.518 3.07 3.07 0 0 0-2.532 1.322 8.892 8.892 0 0 0-1.495 4.04 56.911 56.911 0 0 0-.319 7.457q0 8.93-.697 12.073-.698 3.14-2.571 4.2-1.875 1.058-5.502.207a33.484 33.484 0 0 1-7.655-3.59l-2.112-1.22v-11.048q4.265 2.462 5.581 2.6a1.985 1.985 0 0 0 1.934-.678q.617-.818.637-3.614.02-2.797.34-10.53a24.458 24.458 0 0 1 1.076-7.043 7.895 7.895 0 0 1 2.332-3.533 6.82 6.82 0 0 1 3.727-1.37 39.847 39.847 0 0 1-4.305-6.812 32.485 32.485 0 0 1-2.552-9.207q-.439-3.475-.637-14.546a17.424 17.424 0 0 0-.539-4.915 7.913 7.913 0 0 0-1.793-2.807 29.377 29.377 0 0 0-5.801-3.97v-11.003l2.112 1.22a48.214 48.214 0 0 1 8.253 5.73 24.573 24.573 0 0 1 4.824 6.077 23.151 23.151 0 0 1 2.651 7.24 65.62 65.62 0 0 1 .697 11.059 68.772 68.772 0 0 0 .598 11.347 18.856 18.856 0 0 0 2.671 6.813 18.665 18.665 0 0 0 5.462 4.972ZM522.434 415.459c0-2.898 2.034-4.072 4.544-2.624a10.043 10.043 0 0 1 4.543 7.87c0 2.897-2.034 4.072-4.543 2.623a10.043 10.043 0 0 1-4.544-7.87ZM538.295 424.615c0-2.897 2.034-4.072 4.543-2.623a10.043 10.043 0 0 1 4.544 7.87c0 2.897-2.035 4.071-4.544 2.623a10.043 10.043 0 0 1-4.543-7.87Z"/><path fill="#ced3f8" d="M554.155 433.772c0-2.898 2.034-4.072 4.544-2.623a10.042 10.042 0 0 1 4.543 7.87c0 2.897-2.034 4.07-4.543 2.622a10.042 10.042 0 0 1-4.544-7.87Z"/><path d="m1559.002 487.736-23.818-13.754c-7.104-4.101-24.53-7.453-38.736-7.453h-566.68c-14.203 0-311.72 186.133-311.72 186.133-7.099 4.106-7.099 10.809 0 14.914l433.767 250.434a26.507 26.507 0 0 0 12.994 3.074h11.28l305.37-176.309 12.606-7.277h164.937Z" style="mix-blend-mode:multiply" fill="url(#m)"/><path fill="#423eaf" d="M1364.205 716.557c0 8.203-5.812 11.554-12.914 7.457L917.528 473.58c-7.108-4.101-12.914-14.164-12.914-22.363V124.042c0-8.201 5.806-11.555 12.914-7.455L1351.29 367.02c7.102 4.101 12.914 14.166 12.914 22.367Z"/><path fill="url(#n)" d="M1361.04 361.394 927.271 110.959c-3.598-2.075-6.856-2.234-9.205-.826v-.008l-9.278 5.38.026.005c2.3-1.114 5.355-.86 8.713 1.077L1351.29 367.02c7.102 4.101 12.914 14.166 12.914 22.367v327.169c0 4.07-1.435 6.945-3.744 8.308v.004l9.27-5.379-.026-.004c2.598-1.23 4.246-4.203 4.246-8.554V383.759c0-8.2-5.812-18.264-12.912-22.365Z"/><path fill="#fff" d="M917.528 131.497v322.04l433.763 250.434v-322.04L917.528 131.497z"/><path fill="#f1f1f6" d="M1057.15 899.502c-7.099 4.101-18.722 4.101-25.824 0L597.56 649.068c-7.098-4.097-7.098-10.808 0-14.91l295.662-170.7c7.098-4.097 18.72-4.097 25.824 0l433.768 250.438c7.101 4.098 7.101 10.805 0 14.907Z"/><path fill="#dae0f5" d="m919.5 498.975-21.213-12.246 10.606-6.125 21.213 12.246-10.606 6.125zM955.227 519.604l-21.215-12.25 10.605-6.125 21.215 12.25-10.605 6.125zM990.953 540.229l-21.211-12.25 10.606-6.122 21.215 12.25-10.61 6.122zM1026.678 560.857l-21.209-12.246 10.609-6.125 21.209 12.246-10.609 6.125zM1062.408 581.482l-21.212-12.246 10.609-6.121 21.213 12.246-10.61 6.121zM1098.139 602.115l-21.213-12.25 10.604-6.125 21.218 12.246-10.609 6.129zM1133.866 622.744l-21.209-12.25 10.607-6.125 21.207 12.246-10.605 6.129zM1169.596 643.365l-21.215-12.242 10.61-6.129 21.21 12.25-10.605 6.121zM1205.323 663.994l-21.211-12.242 10.605-6.129 21.215 12.25-10.609 6.121zM1241.051 684.623l-21.213-12.25 10.61-6.121 21.212 12.246-10.609 6.125zM1276.782 705.252l-21.213-12.25 10.605-6.121 21.215 12.246-10.607 6.125zM1312.512 725.881l-21.219-12.25 10.61-6.125 21.214 12.25-10.605 6.125zM900.696 529.373l-38.139-22.019 21.213-12.247 38.137 22.02-21.211 12.246zM880.965 557.525l-52.652-30.402 21.217-12.246 52.65 30.402-21.215 12.246zM859.75 586.533l-67.166-38.781 21.213-12.246 67.162 38.781-21.209 12.246zM787.489 594.732l-38.139-22.015 28.719-16.582 38.138 22.015-28.718 16.582zM840.141 625.135l-38.139-22.02 28.717-16.582 38.143 22.02-28.721 16.582zM892.795 655.533l-38.138-22.015 28.72-16.586 38.137 22.023-28.719 16.578zM1074.338 760.354l-38.135-22.028 28.717-16.578 38.145 22.02-28.727 16.586zM1163.573 811.869l-74.803-43.191 28.719-16.578 74.804 43.187-28.72 16.582zM1021.774 730.002l-114.461-66.09 28.717-16.578 114.466 66.086-28.722 16.582zM946.424 555.775l-31.213-18.019 21.209-12.25 31.215 18.019-21.211 12.25zM926.694 583.924l-31.217-18.02 21.215-12.25 31.213 18.02-21.211 12.25zM906.455 612.369l-31.211-18.019 21.215-12.246 31.213 18.019-21.217 12.246zM952.184 638.768l-31.213-18.02 21.213-12.25 31.213 18.024-21.213 12.246zM997.905 665.166l-31.209-18.019 21.212-12.243 31.213 18.02-21.216 12.242zM1043.637 691.572l-31.213-18.019 21.211-12.254 31.211 18.023-21.209 12.25zM1089.362 717.971l-31.209-18.024 21.211-12.246 31.209 18.024-21.211 12.246zM1135.086 744.369l-31.209-18.019 21.211-12.254 31.213 18.023-21.215 12.25zM1207.787 786.342l-58.185-33.594 21.211-12.246 58.185 33.594-21.211 12.246zM972.42 610.322l-31.211-18.015 21.215-12.25 31.209 18.019-21.213 12.246zM1018.147 636.725l-31.213-18.024 21.215-12.246 31.213 18.024-21.215 12.246zM1063.867 663.127l-31.209-18.02 21.215-12.253 31.213 18.023-21.219 12.25zM1109.598 689.525l-31.213-18.019 21.217-12.25 31.209 18.019-21.213 12.25zM1155.326 715.928l-31.216-18.024 21.218-12.25 31.213 18.024-21.215 12.25zM1242.535 766.279l-72.697-41.976 21.215-12.246 72.701 41.972-21.219 12.25zM992.147 582.174l-31.211-18.02 21.215-12.246 31.209 18.02-21.213 12.246zM1037.875 608.572l-31.213-18.019 21.213-12.246 31.213 18.015-21.213 12.25zM1083.598 634.971l-31.207-18.02 21.209-12.238 31.213 18.016-21.215 12.242zM1129.324 661.377l-31.212-18.023 21.212-12.25 31.213 18.023-21.213 12.25zM1175.053 687.772l-31.213-18.02 21.211-12.242 31.217 18.015-21.215 12.247zM1220.778 714.174l-31.209-18.02 21.211-12.246 31.212 18.02-21.214 12.246zM1276.782 746.506l-41.487-23.953 21.213-12.246 41.484 23.953-21.21 12.246z"/><path fill="#6b67e9" d="M1297.018 693.568 954.248 495.67l10.299-5.945 342.766 197.902-10.295 5.941z"/><path fill="#dae0f5" d="m1021.768 755.572-174.91-100.988-108.69 62.754 174.91 100.984 108.69-62.75z"/><path fill="url(#o)" d="M1352.813 728.803 1057.15 899.502c-5.639 3.258-14.12 3.918-20.938 2.004-.049-.016-4.236-1.63-4.887-2.004L597.56 649.068a15.713 15.713 0 0 1-1.371-.894.538.538 0 0 0-.065-.05c-.115-.087-.213-.173-.32-.259a11.703 11.703 0 0 1-.717-.601c-.115-.102-.223-.211-.33-.317a10.052 10.052 0 0 1-.742-.808l-.09-.102c-.016-.023-.035-.047-.05-.066a9.139 9.139 0 0 1-.673-1 6.699 6.699 0 0 1-.945-3.098h-.024v6.25h.05c-.04 2.727 1.695 5.46 5.277 7.531l433.767 250.434c10.352 5.133 25.137 4.133 29.541 3.168 4.4-.965 8.356-2.067 12.971-3.074l278.975-161.063c3.591-2.074 5.36-4.812 5.314-7.55v-16.141c-.03 2.676-1.803 5.343-5.314 7.375Z"/><path fill="#ff826a" d="m1330.202 387.822-79.87-46.112-311.717-179.97c-4.925-2.84-8.954-.516-8.953 5.171v30.954c0 5.689 4.028 12.667 8.953 15.509l311.718 179.97 79.869 46.112c4.925 2.845 8.955.52 8.955-5.165v-30.96c0-5.687-4.03-12.665-8.955-15.51Z"/><path fill="#fff" d="m987.493 198.107 303.78 175.387v35.889l-303.78-175.387v-35.889z"/><path fill="#e33c5c" d="M1299.841 383.832v4.036l28.536 16.475v-4.035Zm0 13.787 28.536 16.476v-4.036l-28.536-16.475Zm0 9.752 28.536 16.475v-4.035l-28.536-16.475Z"/><path fill="#fff" d="m958.983 184.974 8.235 4.755a30.811 30.811 0 0 0-9.533-9.167c-8.785-5.072-15.907-.96-15.907 9.184a27.613 27.613 0 0 0 1.325 8.103l1.1-4.106Zm8.486 5.127-2.186 8.156a2.705 2.705 0 0 1-2.772 2.114l-5.16-.146 9.979 5.76-1.572 5.87-3.566-2.06-1.102 4.11-6.617-3.82 1.101-4.11-12.093-6.982c2.62 7.504 7.994 14.719 14.204 18.304 8.785 5.072 15.907.96 15.907-9.184 0-5.882-2.398-12.5-6.123-18.012Zm-14.987 7.313 4.87 2.81 1.872-6.987Z"/><path fill="#dae0f5" d="m1075.558 529.285-141.546-81.721V239.213l141.546 81.721v208.351zM1333.762 565.462l-245.511-141.745v-95.454l245.511 141.745v95.454zM1333.762 677.328l-245.511-141.745v-98.588l245.511 141.746v98.587z"/><path fill="#fff" d="m1015.14 388.228-8.623-4.979v-9.957l-3.464-2v9.957l-8.623-4.979v4l8.623 4.979v9.957l3.464 2v-9.957l8.623 4.979v-4z"/><path fill="#807dfb" d="m1148.381 414.229-40.875-23.599v-8l40.875 23.599v8zM1277.969 489.047l-111.667-64.472v-8l111.667 64.472v8zM1130.781 503.941l-23.275-13.437v-8l23.275 13.437v8zM1277.969 588.921l-129.268-74.633v-8l129.268 74.633v8zM1159.598 548.085l-52.092-30.075v-8l52.092 30.075v8zM1277.969 616.427l-100.451-57.996v-7.999l100.451 57.995v8z"/><path fill="#6b67e9" d="m1042.94 242.78-2.805-1.62 4.448 17.42 3.095 1.787 3.046-8.403 3.046 11.92 3.095 1.787 4.448-12.283-2.804-1.62-3.191 9.38-3.192-13.064-2.804-1.62-3.191 9.38Zm-22.05-12.73-2.803-1.62 4.448 17.42 3.094 1.787 3.047-8.403 3.046 11.92 3.094 1.787 4.449-12.283-2.804-1.62-3.192 9.38-3.191-13.064-2.805-1.62-3.19 9.38Zm-22.048-12.73-2.804-1.62 4.448 17.42 3.094 1.787 3.048-8.402 3.045 11.92 3.094 1.786 4.45-12.283-2.806-1.62-3.19 9.381-3.192-13.065-2.804-1.62-3.191 9.381Zm61.559 48.109a4.014 4.014 0 0 0 1.813 3.14 1.203 1.203 0 0 0 1.269.119 1.264 1.264 0 0 0 .52-1.18 3.913 3.913 0 0 0-1.79-3.098 1.264 1.264 0 0 0-1.28-.14 1.204 1.204 0 0 0-.532 1.159Z"/><path d="m1426.933 811.758-316.271 187.574h8.604l316.283-182.599-8.616-4.975z" style="mix-blend-mode:multiply" fill="#dae0f5"/><path fill="#00d6dc" d="m1426.934 811.76-51.574-29.776-316.271 182.606 51.571 29.776 316.274-182.606z"/><path fill="#f6f6fb" d="m1065.841 960.694 9.161 5.284-1.271.743-9.165-5.293 1.275-.734zM1093.415 944.778l9.152 5.29-1.268.737-9.159-5.297 1.275-.73zM1120.983 928.858l9.156 5.295-1.273.735-9.157-5.292 1.274-.738zM1148.547 912.947l9.159 5.284-1.268.741-9.161-5.295 1.27-.73zM1176.116 897.024l9.169 5.296-1.279.728-9.167-5.284 1.277-.74zM1203.687 881.111l9.161 5.289-1.268.742-9.168-5.3 1.275-.731zM1231.254 865.197l9.162 5.287-1.271.729-9.17-5.289 1.279-.727zM1258.816 849.275l9.168 5.291-1.268.736-9.171-5.289 1.271-.738zM1286.382 833.36l9.174 5.291-1.278.735-9.162-5.29 1.266-.736zM1313.962 817.444l9.161 5.289-1.275.734-9.158-5.285 1.272-.738zM1341.527 801.526l9.165 5.291-1.273.735-9.168-5.292 1.276-.734zM1367.824 786.344l9.16 5.293 1.272-.736-9.157-5.293-1.275.736z"/><path fill="#00b6bf" d="m1200.935 907.769 8.143 4.701 76.01-43.885-8.149-4.699-76.004 43.883zM1110.662 999.332l-51.574-29.773v-4.971l51.574 29.777v4.967z"/><path fill="#009aaa" d="m1426.933 816.738-316.271 182.594v-4.967l316.271-182.607v4.98z"/><path fill="#f6f6fb" d="m1069.767 958.427 4.586 2.645-1.271.743-4.588-2.653 1.273-.735zM1073.719 956.146l4.585 2.644-1.271.744-4.588-2.653 1.274-.735zM1077.67 953.865l4.586 2.644-1.271.743-4.588-2.652 1.273-.735zM1081.622 951.583l4.585 2.645-1.271.743-4.588-2.652 1.274-.736zM1085.573 949.302l4.585 2.644-1.27.743-4.588-2.652 1.273-.735zM1089.525 947.02l4.585 2.645-1.271.743-4.588-2.652 1.274-.736zM1097.341 942.507l4.585 2.645-1.271.743-4.588-2.652 1.274-.736zM1101.292 940.226l4.586 2.644-1.271.744-4.588-2.652 1.273-.736zM1105.244 937.945l4.585 2.644-1.271.743-4.588-2.652 1.274-.735zM1109.196 935.663l4.585 2.645-1.271.743-4.588-2.652 1.274-.736zM1113.147 933.382l4.585 2.644-1.271.743-4.588-2.652 1.274-.735zM1117.098 931.1l4.586 2.645-1.271.743-4.588-2.652 1.273-.736zM1124.915 926.588l4.585 2.644-1.271.743-4.588-2.652 1.274-.735zM1128.866 924.306l4.585 2.645-1.27.743-4.589-2.653 1.274-.735zM1132.817 922.025l4.586 2.644-1.271.743-4.588-2.652 1.273-.735zM1136.769 919.743l4.585 2.645-1.271.743-4.587-2.652 1.273-.736zM1140.721 917.462l4.585 2.644-1.271.743-4.588-2.652 1.274-.735zM1144.672 915.18l4.585 2.645-1.271.743-4.587-2.652 1.273-.736zM1152.488 910.667l4.585 2.645-1.27.743-4.588-2.652 1.273-.736zM1156.44 908.386l4.585 2.645-1.271.743-4.588-2.653 1.274-.735zM1160.391 906.105l4.585 2.644-1.27.743-4.588-2.652 1.273-.735zM1164.343 903.823l4.585 2.645-1.271.743-4.588-2.652 1.274-.736zM1168.294 901.542l4.585 2.645-1.27.743-4.588-2.653 1.273-.735zM1172.245 899.261l4.586 2.644-1.271.743-4.588-2.652 1.273-.735zM1180.062 894.748l4.585 2.644-1.271.743-4.588-2.652 1.274-.735zM1184.013 892.466l4.586 2.645-1.271.743-4.588-2.652 1.273-.736zM1187.965 890.185l4.585 2.645-1.271.743-4.588-2.653 1.274-.735zM1191.916 887.903l4.585 2.645-1.27.743-4.588-2.652 1.273-.736zM1195.868 885.622l4.585 2.645-1.271.743-4.588-2.653 1.274-.735zM1199.819 883.341l4.586 2.644-1.271.744-4.588-2.653 1.273-.735zM1207.635 878.828l4.586 2.644-1.271.744-4.588-2.653 1.273-.735zM1211.587 876.546l4.585 2.645-1.271.743-4.588-2.652 1.274-.736zM1215.539 874.265l4.585 2.645-1.271.743-4.588-2.653 1.274-.735zM1219.49 871.984l4.585 2.644-1.271.743-4.588-2.652 1.274-.735zM1223.441 869.702l4.586 2.645-1.271.743-4.588-2.652 1.273-.736zM1227.393 867.421l4.585 2.644-1.271.744-4.588-2.653 1.274-.735zM1235.209 862.908l4.585 2.644-1.271.744-4.588-2.653 1.274-.735zM1239.161 860.627l4.585 2.644-1.271.743-4.588-2.652 1.274-.735zM1243.112 858.345l4.585 2.645-1.27.743-4.588-2.653 1.273-.735zM1247.063 856.064l4.586 2.644-1.271.744-4.588-2.653 1.273-.735zM1251.015 853.783l4.585 2.644-1.271.743-4.587-2.652 1.273-.735zM1254.966 851.501l4.586 2.645-1.271.743-4.588-2.653 1.273-.735zM1262.783 846.988l4.585 2.645-1.271.743-4.588-2.653 1.274-.735zM1266.734 844.707l4.585 2.644-1.271.743-4.587-2.652 1.273-.735zM1270.686 842.425l4.585 2.645-1.271.743-4.588-2.652 1.274-.736zM1274.637 840.144l4.585 2.645-1.271.743-4.587-2.653 1.273-.735zM1278.589 837.863l4.585 2.644-1.271.743-4.588-2.652 1.274-.735zM1282.54 835.581l4.585 2.645-1.271.743-4.587-2.653 1.273-.735zM1290.356 831.068l4.585 2.645-1.27.743-4.588-2.653 1.273-.735zM1294.308 828.787l4.585 2.644-1.271.744-4.588-2.653 1.274-.735zM1298.259 826.506l4.585 2.644-1.27.743-4.588-2.652 1.273-.735zM1302.211 824.224l4.585 2.645-1.271.743-4.588-2.653 1.274-.735zM1306.162 821.943l4.585 2.644-1.271.743-4.587-2.652 1.273-.735zM1310.114 819.661l4.585 2.645-1.271.743-4.588-2.653 1.274-.735zM1317.93 815.148l4.585 2.645-1.271.743-4.588-2.652 1.274-.736zM1321.881 812.867l4.585 2.645-1.27.743-4.588-2.653 1.273-.735zM1325.833 810.586l4.585 2.644-1.271.743-4.588-2.652 1.274-.735zM1329.784 808.304l4.586 2.645-1.271.743-4.588-2.653 1.273-.735zM1333.736 806.023l4.585 2.645-1.271.742-4.588-2.652 1.274-.735zM1337.687 803.742l4.586 2.644-1.271.743-4.588-2.652 1.273-.735zM1345.503 799.229l4.586 2.644-1.271.743-4.588-2.652 1.273-.735zM1349.455 796.947l4.585 2.645-1.271.743-4.588-2.652 1.274-.736zM1353.406 794.666l4.586 2.645-1.271.743-4.588-2.653 1.273-.735zM1357.358 792.385l4.585 2.644-1.271.743-4.588-2.652 1.274-.735zM1361.309 790.103l4.586 2.645-1.271.743-4.588-2.653 1.273-.735zM1365.261 787.822l4.585 2.644-1.271.743-4.588-2.652 1.274-.735z"/><path d="M1493.319 823.386a10.249 10.249 0 0 0-5.338 1.346c-.858.498-3.568 2.056-6.016 3.467l-1.12-.65a1.845 1.845 0 0 0-1.784.008c-.143.07-21.131 12.193-21.131 12.193a2.122 2.122 0 0 0-.71.581l-.996 1.42-220.287 134.618-12.562 19.463 32.85-10.29 210.15-121.332a1.863 1.863 0 0 0 1.793-.019c.106-.05 21.136-12.197 21.136-12.197a2.22 2.22 0 0 0 .682-.567l1.517-2.162 7.873-4.545a11.66 11.66 0 0 0 5.467-9.82 11.518 11.518 0 0 0-11.524-11.514Z" style="mix-blend-mode:multiply" fill="url(#p)"/><path fill="url(#q)" d="M1474.728 819.394a10.325 10.325 0 0 0-5.339 1.341l-7.527 4.347a9.838 9.838 0 0 1 2.079.904c5.14 2.973 9.302 10.183 9.302 16.115a8.94 8.94 0 0 1-.608 3.329l8.145-4.702a11.638 11.638 0 0 0 5.467-9.82 11.52 11.52 0 0 0-11.52-11.514Z"/><path fill="url(#r)" d="M1214.875 977.319a6.659 6.659 0 0 1 3.01 5.218c0 1.162-.507 1.9-1.263 2.084l21.002-3.07 4.494-6.39-4.494-11.57-8.97-5.182-16.144 18.9a1.949 1.949 0 0 1 2.365.01Z"/><path fill="url(#s)" d="M1214.875 977.319a1.949 1.949 0 0 0-2.365-.01l-.25.286-7.476 8.76 11.621-1.707.217-.027c.756-.185 1.263-.922 1.263-2.084a6.659 6.659 0 0 0-3.01-5.218Z"/><path fill="#ced3f8" d="M1440.454 855.99a5.52 5.52 0 0 1-2.042-2.374l-3.642-9.39a3.454 3.454 0 0 1 .36-2.9l3.498-4.987a1.863 1.863 0 0 1 2.393-.535l7.32 4.223a5.491 5.491 0 0 1 2.033 2.383l3.642 9.386a3.459 3.459 0 0 1-.355 2.908l-3.494 4.984a1.862 1.862 0 0 1-2.393.53Z"/><path fill="#ff826a" d="m1453.375 853.193-211.257 121.968-4.494-11.57 211.261-121.965 4.49 11.567z"/><path fill="#e33c5c" d="m1448.885 859.581-211.261 121.97 4.494-6.39 211.257-121.968-4.49 6.388z"/><path fill="#ffaf6d" d="m1448.885 841.626-211.261 121.965-8.971-5.182 211.257-121.968 8.975 5.185z"/><path fill="url(#t)" d="m1475.244 839.538-3.638-9.38a5.508 5.508 0 0 0-2.041-2.384l-7.311-4.222a1.858 1.858 0 0 0-1.784.018c-.143.065-21.132 12.188-21.132 12.188a1.94 1.94 0 0 1 1.683.047l7.32 4.222a5.491 5.491 0 0 1 2.033 2.383l3.642 9.386a3.459 3.459 0 0 1-.355 2.909l-3.494 4.983a1.919 1.919 0 0 1-.484.46l21.034-12.141a2.11 2.11 0 0 0 .673-.577l3.503-4.978a3.502 3.502 0 0 0 .351-2.914Z"/><path d="M1452.753 858.374a1.697 1.697 0 0 0 .48-.461l3.498-4.979a3.458 3.458 0 0 0 .35-2.908l-3.637-9.381a5.45 5.45 0 0 0-2.037-2.383l-7.316-4.218a1.805 1.805 0 0 0-1.66-.037c-.032-.019-1.53.848-1.53.848a1.925 1.925 0 0 1 1.683.055l7.32 4.218a5.534 5.534 0 0 1 2.037 2.384l3.638 9.385a3.478 3.478 0 0 1-.35 2.904l-3.504 4.988a1.827 1.827 0 0 1-.48.46Z" style="mix-blend-mode:multiply" fill="url(#b)"/><path d="M1455.92 856.54a1.653 1.653 0 0 0 .488-.462l3.49-4.978a3.432 3.432 0 0 0 .355-2.904l-3.637-9.39a5.553 5.553 0 0 0-2.038-2.38l-7.315-4.217a1.826 1.826 0 0 0-1.664-.037c-.023-.018-1.53.853-1.53.853a1.924 1.924 0 0 1 1.682.05l7.32 4.223a5.527 5.527 0 0 1 2.042 2.379l3.642 9.385a3.473 3.473 0 0 1-.36 2.914l-3.499 4.978a1.65 1.65 0 0 1-.483.46Z" style="mix-blend-mode:multiply" fill="url(#u)"/><path d="M1459.091 854.714a1.703 1.703 0 0 0 .484-.461l3.504-4.979a3.505 3.505 0 0 0 .355-2.913l-3.642-9.386a5.586 5.586 0 0 0-2.042-2.379l-7.316-4.222a1.818 1.818 0 0 0-1.66-.037c-.022-.013-1.535.858-1.535.858a1.944 1.944 0 0 1 1.692.05l7.312 4.228a5.453 5.453 0 0 1 2.042 2.369l3.641 9.395a3.466 3.466 0 0 1-.355 2.904l-3.498 4.983a1.758 1.758 0 0 1-.485.456Z" style="mix-blend-mode:multiply" fill="url(#v)"/><path d="M830.46 685.033c0-11.772-8.342-26.22-18.536-32.105l-279.66-161.461c-10.194-5.886-18.536-1.07-18.536 10.702V745.6c0 11.772 8.342 26.22 18.537 32.105l279.659 161.461c10.194 5.886 18.536 1.07 18.536-10.701Z" style="mix-blend-mode:multiply" fill="url(#w)"/><path fill="url(#x)" d="M830.46 928.465V685.033c0-11.772-8.342-26.22-18.536-32.106l-279.66-161.46c-5.037-2.909-9.617-3.195-12.967-1.33l5.227-3.017.013.019c3.384-2.172 8.154-2.014 13.433 1.034l279.659 161.46c10.195 5.887 18.536 20.334 18.536 32.106V925.17c0 6.16-2.298 10.39-5.936 12.204l-4.768 2.753c3.088-2.045 4.999-6.052 4.999-11.663Z"/><path d="m621.54 597.951-5.46-5.91-32.995 67.962 5.458 5.912Zm4.424 73.098 26.663-12.942-26.663-43.73-4.036 2.734 21.9 35.916-21.9 10.63Zm-50.67-29.254 4.037-2.73-21.9-35.92 21.9-10.626-4.037-7.396-26.662 12.942Z" style="mix-blend-mode:screen" fill="#807dfb"/><path d="M802.198 913.498 660.989 831.97c-5.762-3.327-10.434-12.253-10.434-19.937V775.42c0-7.684 4.672-11.216 10.434-7.888l141.209 81.526c5.763 3.327 10.434 12.253 10.434 19.937v36.614c0 7.684-4.671 11.216-10.434 7.889Z" style="mix-blend-mode:screen" fill="#423eaf"/><ellipse cx="731.594" cy="840.515" fill="#fff" rx="14.452" ry="25.032" transform="rotate(-30 731.594 840.515)"/><path fill="#6b67e9" d="M735.746 830.337v26.653l-3.825-2.208v-21.97l-.395-.228-3.662 5.083-4.055-2.341 6.1-8.36Z"/><g style="mix-blend-mode:screen"><path fill="#6b67e9" d="m706.35 632.528-38.472-22.212v-8.201l38.472 22.212v8.201z"/><path fill="#ced3f8" d="m686.423 663.385-18.545-10.708v8.202l18.545 10.707v-8.201z"/><path fill="#ff826a" d="m812.632 693.891-99.772-57.604v-8.201l99.772 57.603v8.202z"/><path fill="#c4cae9" d="m788.462 696.562-99.772-57.603v-8.201l99.772 57.603v8.201z"/><path fill="#6b67e9" d="m773.233 704.396-92.334-53.309v-8.201l92.334 53.308v8.202z"/><path fill="#00d6dc" d="m716.591 706.313-48.713-28.125v-8.201l48.713 28.125v8.201z"/><path fill="#6b67e9" d="m812.632 761.762-89.53-51.69v-8.201l89.53 51.69v8.201z"/><path fill="#ced3f8" d="m687.838 708.899-19.96-11.524v-8.201l19.96 11.524v8.201zM812.632 780.95l-118.284-68.292v-8.201l118.284 68.291v8.202zM706.35 738.774l-38.472-22.212v-8.201l38.472 22.212v8.201z"/><path fill="#6b67e9" d="m812.632 800.136-99.772-57.603v-8.201l99.772 57.603v8.201z"/><path fill="#ff826a" d="m788.462 806.002-99.772-57.604v-8.201l99.772 57.603v8.202z"/><path fill="#6b67e9" d="M804.346 831.798 706.35 775.22v-8.201l97.996 56.578v8.201z"/></g><path style="mix-blend-mode:multiply" fill="url(#c)" d="M552.03 933.943h73.386v13.487H552.03z"/><path style="mix-blend-mode:multiply" fill="url(#y)" d="M518.942 914.465h73.389v13.487h-73.389z"/><path fill="url(#d)" d="M510.822 923.802c0-10.596 6.716-10.902 6.716-10.902s3.636 0 9.541-2.45c5.83-2.423 14.043-1.487 9.454 6.981a2.169 2.169 0 0 1-.158.313 4.135 4.135 0 0 1-1.489 1.306l-14.672 8.607c-2.237 1.279-9.34-1.674-9.392-3.855Z"/><path fill="#1e1c6b" d="M510.86 922.853c.129 2.176 7.134 5.07 9.354 3.804l14.672-8.606a13.447 13.447 0 0 0 2.068-1.507c-.134.292-.251.572-.42.887a2.169 2.169 0 0 1-.159.313 4.135 4.135 0 0 1-1.489 1.307l-14.672 8.607c-2.094 1.196-8.459-1.318-9.299-3.435a2.485 2.485 0 0 1-.067-.43 7.208 7.208 0 0 1 .012-.94Z"/><path fill="#fff" d="M513.551 911.507c1.729 0 7.816 1.547 7.816 1.547a3.442 3.442 0 0 0 .544 1.577c.061.067.114.136.17.206 1.201.835 2.421 2.156-.428 3.944a3.953 3.953 0 0 1-5.13-.364 4.668 4.668 0 0 0-1.653-1.88 4.283 4.283 0 0 0-1.588-.67.89.89 0 0 0-.015-.144s-.442-4.216.284-4.216Z"/><path fill="#1e1c6b" d="m513.443 807.902 29.847.533c-2.469 19.943-7.436 38.057-10.756 57.37-3.56 18.77-7.573 31.958-11.077 47.581-1.28 2.909-7.148 1.808-8.339-.992-.927-14.385-1.995-31.912 2.27-48.508-.714-17.893-2.364-37.92-1.945-55.984Z"/><path fill="url(#z)" d="M544.267 943.271c0-10.596 6.716-10.901 6.716-10.901s3.636 0 9.544-2.452c5.827-2.421 14.043-1.485 9.451 6.983a2.18 2.18 0 0 1-.158.313 4.114 4.114 0 0 1-1.489 1.306l-14.672 8.607c-2.235 1.278-9.34-1.675-9.392-3.856Z"/><path fill="#1e1c6b" d="M544.308 942.322c.126 2.176 7.134 5.07 9.351 3.804l14.672-8.605a13.636 13.636 0 0 0 2.071-1.508c-.137.292-.254.572-.424.887a2.18 2.18 0 0 1-.158.313 4.114 4.114 0 0 1-1.489 1.306l-14.672 8.607c-2.091 1.197-8.459-1.317-9.299-3.434a2.181 2.181 0 0 1-.064-.43 6.684 6.684 0 0 1 .012-.94Z"/><path fill="#fff" d="M546.999 930.976c1.726 0 7.816 1.547 7.816 1.547a3.417 3.417 0 0 0 .54 1.577c.062.067.115.136.17.206 1.203.835 2.425 2.156-.424 3.945a3.952 3.952 0 0 1-5.13-.365 4.7 4.7 0 0 0-1.656-1.88 4.273 4.273 0 0 0-1.585-.669.815.815 0 0 0-.018-.145s-.439-4.216.287-4.216Z"/><path fill="url(#A)" d="M534.494 855.32c-1.816-8.572-22.733-9.637-21.361-43.345 6.563-.965 39.678 14.564 46.239 13.598.822 20.078-1.12 38.76-1.243 58.355-.445 19.1-2.253 32.766-3.156 48.752-.79 3.08-6.757 2.951-8.39.386-3.264-14.042-7.18-31.16-5.683-48.231-1.954-9.456-4.28-19.478-6.406-29.514Z"/><path fill="#e33c5c" d="M528.27 746.518c-23.36 15.61-26.144 46.608-13.514 66.28 0 0-2.714-43.587 13.514-66.28Z"/><path fill="url(#B)" d="M527.202 831.084c14.219 7.98 29.096 7.997 34.168-1.813-1.899-18.264-3.674-33.127-.015-50.632-1.082-9.667-3.261-15.54-2.024-21.181-7.822-1.07-14.558-13.083-19.098-14.007-19.443-3.97-28.888 30.675-27.261 67.611 1.5 9.822 7.23 16.094 14.23 20.022Z"/><path fill="#ffd3ab" d="M529.451 745.655c4.218-3.047 3.592-5.041 2.96-9.189a20.63 20.63 0 0 1-1.269-7.16c0-9.238 5.882-17.22 13.093-16.723 14.528.997 11.943 8.642 11.943 17.88 0 8.558-3.882 14.446-10.373 15.44 0 1.405 2.688 4.413 4.458 6.183-7.099 5.531-13.99-.7-16.725-1.935-2.917-1.32-6.064-2.45-4.087-4.496Z"/><path fill="url(#C)" d="M554.52 758.492c22.425-4.192 37.018-20.73 46.11-36.838l7.596 3.36c-4.622 20.7-20.692 49.279-50.106 54.608-14.877 0-13.707-19.24-3.6-21.13Z"/><path fill="#ffd3ab" d="m601.527 718.94-.029.084c0-3.757.787-5.944 2.235-6.584.313-.898.64-1.836.96-2.73 1.871-5.241 7.74-9.735 8.985-8.488.752.753-2.232 3.06-3.805 5.555a8.876 8.876 0 0 0-1.31 3.931s7.02.655 7.02 6.49c0 4.742-2.56 2.87-2.56 1.934-1.81 4.805-3.964 1.966-4.797 5.881l-7.596-3.36s.356-1.085.897-2.712Z"/><path fill="#1e1c6b" d="M537.85 710.245c1.874-.966 3.562-.467 4.606-1.137 2.48-1.518 4.83-2.486 6.146-1.765a14.227 14.227 0 0 1 1.845 1.47c1.293 1.29 3.943-1.459 4.578 1.876a12.55 12.55 0 0 1 .22 2.593c6.204.797 3.15 6.447-1.837 17.331-.006-1.767-3.76-5.85-3.76 2 0 .845.633 1.01.077 2.13-.556 1.115-4.122 3.931-6.473 6.283-3.282 3.282-5.21.34-10.636.93a8.663 8.663 0 0 0-1.427-4.949c-.52-.918-3.498-3.84-3.501-8.939 4.212.52-3.276-10.9 10.161-17.823Z"/><path fill="#807dfb" d="M763.554 226.734v91.188l-78.97 45.596c0-50.362 35.356-111.603 78.97-136.784Z"/><path fill="url(#D)" d="m748.644 218.126 53.988 31.17-77.364 137.71-55.595-32.096c0-50.364 35.356-111.603 78.971-136.784Z"/><path fill="#00d6dc" d="M763.554 226.734v91.188l-78.97 45.596c0-50.362 35.356-111.603 78.97-136.784Z"/><path fill="#807dfb" d="m684.583 363.518 78.971-45.596-69.924 82.747c-5.767-9.336-9.047-21.85-9.047-37.151Z"/><path fill="#dce1f4" d="M763.554 317.922v-91.188c43.616-25.181 78.972-4.768 78.972 45.594S807.17 383.929 763.555 409.11c-30.364 17.53-56.71 12.942-69.925-8.442Z"/><path fill="#f7f7fc" d="M748.644 218.126c21.936-12.665 41.78-13.787 56.09-5.376l13.916 8.035-.01.022c-14.23-7.788-33.654-6.446-55.085 5.927l-14.91-8.608Z"/><path fill="#a3a9d0" d="M691.393 405.14a40.694 40.694 0 0 1-12.673-13.08l14.91 8.609a40.685 40.685 0 0 0 12.675 13.08Z"/><path fill="#5652cc" d="M678.72 392.06c-5.768-9.334-9.047-21.85-9.047-37.15l14.91 8.608h-.001c0 15.3 3.28 27.815 9.048 37.15Z"/><path d="m413.122 887.517-80.873-46.695c-6.676-3.855-17.599-3.855-24.278.002l-79.58 45.945c-6.677 3.855-6.675 10.16-.002 14.017l42.311 24.43v25.155h50.727a24.821 24.821 0 0 0 12.115-2.89l79.586-45.949c6.675-3.853 6.672-10.16-.006-14.015Z" style="mix-blend-mode:multiply" fill="url(#e)"/><path fill="#f6f6fb" d="M285.636 919.048c-6.677 3.855-17.601 3.852-24.28-.002l-80.873-46.695c-6.673-3.856-6.675-10.162.002-14.017l79.58-45.945c6.679-3.856 17.602-3.856 24.278 0l80.873 46.694c6.678 3.854 6.681 10.162.006 14.015Z"/><path fill="#fff" d="M273.5 916.09a19.1 19.1 0 0 1-9.22-2.11l-80.873-46.694c-1.65-.953-2.066-1.79-2.08-1.946.014-.15.432-.987 2.083-1.94l79.578-45.945a21.186 21.186 0 0 1 18.428-.002l80.875 46.694c1.654.954 2.072 1.793 2.087 1.948-.015.15-.433.986-2.081 1.938l-79.586 45.95a19.096 19.096 0 0 1-9.211 2.107Z"/><path fill="url(#f)" d="m175.486 893.505.013.001c-.12 2.632 1.527 5.283 4.986 7.28l80.874 46.694c6.675 3.856 17.6 3.854 24.278 0l79.579-45.946c3.497-2.019 5.142-4.708 4.977-7.36l.003-27.73c-.146 2.421-1.791 4.817-4.974 6.654l-79.586 45.95c-6.677 3.855-17.601 3.852-24.28-.002l-80.873-46.695c-3.296-1.905-4.96-4.408-4.999-6.917Z"/><path fill="url(#E)" d="M175.486 883.58h.013c-.12 2.633 1.527 5.284 4.986 7.28l80.874 46.695c6.675 3.855 17.6 3.854 24.278-.001l79.579-45.945c3.497-2.02 5.142-4.708 4.977-7.36l.003-5.51c-.146 2.423-1.791 4.818-4.974 6.656l-79.586 45.949c-6.677 3.855-17.601 3.853-24.28-.001l-80.873-46.695c-3.296-1.905-4.96-4.408-4.999-6.917Z"/><path fill="#fcba06" d="M274.564 834.249a15.917 15.917 0 0 1 14.403 0c3.979 2.296 3.98 6.02 0 8.316a15.918 15.918 0 0 1-14.402 0c-3.978-2.297-3.978-6.02 0-8.316Z"/><path d="m280.536 906.14 26.533-43.47c1.837-3.008-3.18-5.905-8.393-4.845l-75.292 15.319Z" style="mix-blend-mode:multiply" fill="#dae0f5"/><path d="m244.407 885.281 18.312-30.001c1.837-3.01-3.181-5.906-8.393-4.846l-51.965 10.573Z" style="mix-blend-mode:multiply" fill="#dfe4f4"/><path d="m847.484 1080.379-150.191-86.713a14.055 14.055 0 0 0-12.674 0l-41.541 23.984c-3.486 2.013-3.485 5.304-.001 7.317l142.778 82.433v5.78h13.413v-.01a13.119 13.119 0 0 0 6.674-1.49l41.545-23.985c3.484-2.012 3.483-5.305-.003-7.316Z" style="mix-blend-mode:multiply" fill="url(#F)"/><path fill="#00d6dc" d="M683.882 985.822a14.055 14.055 0 0 0-12.673 0l-41.542 23.985c-3.485 2.012-3.484 5.304 0 7.317l46.742 26.987 54.216-31.302Z"/><path fill="#009aaa" d="M672.281 1012.331c-.67-1.893.359-4.027 3.074-5.594 4.124-2.383 10.516-2.55 14.281-.377 3.759 2.17 3.465 5.867-.659 8.246a16.335 16.335 0 0 1-9.683 1.77c3.82 4.445 2.522 9.424-1.528 11.76-.975-.572-12.92-7.465-12.92-7.465l-12.932-7.462c4.045-2.337 12.672-3.085 20.367-.878Z"/><path fill="#f1f1f6" d="m834.073 1072.535-103.448-59.726-54.216 31.302 103.448 59.725a14.06 14.06 0 0 0 12.675.001l41.544-23.986c3.485-2.012 3.483-5.304-.003-7.316Z"/><path fill="#009aaa" d="M629.666 1017.124c-1.72-.995-2.589-2.301-2.61-3.611l.003 7.655h.007c-.063 1.375.797 2.759 2.603 3.8l46.74 26.986v-7.843Z"/><path fill="url(#G)" d="m834.077 1079.851-41.545 23.986a14.06 14.06 0 0 1-12.675 0L676.41 1044.11v7.843l103.45 59.727a14.057 14.057 0 0 0 12.674 0l41.541-23.984c1.826-1.054 2.685-2.458 2.599-3.842v-7.478a4.534 4.534 0 0 1-2.596 3.474Z"/><path fill="url(#g)" d="m715.535 1029.739 82.631 47.707 5.736-3.312-82.63-47.707-5.737 3.312z"/><path fill="url(#H)" d="m700.704 1038.302 32.027 18.49 5.737-3.312-32.027-18.491-5.737 3.313z"/><path fill="url(#I)" d="m739.064 1060.448 8.041 4.643 5.736-3.313-8.04-4.642-5.737 3.312z"/><path d="M497.98 1058.831a19.29 19.29 0 0 0-1.976-2.78c-2.688-2.67 3.506-7.135 6.303-8.748.053 0-8.153-4.735-8.153-4.735l-24.103.022a10.873 10.873 0 0 1-2.026-6.296l-11.567-.005c-.003 1.886-.772 6.102-3.964 7.944a6.56 6.56 0 0 1-2.34.802c-1.636.32-3.249.704-4.81 1.156a1.084 1.084 0 0 1-.206-.035q-2.345-.674-4.797-1.154c-5.165-.779-6.227-6.465-6.215-8.743l-11.568-.003c-.002 1.884-.769 6.103-3.963 7.945a6.546 6.546 0 0 1-2.338.799 54.96 54.96 0 0 0-4.81 1.156c-5.326 1.147-12.302-2.007-15.082-3.623l-8.203 4.735c2.78 1.616 8.923 6.083 6.203 8.746a18.566 18.566 0 0 0-2.003 2.785 3.23 3.23 0 0 1-1.393 1.352c-3.19 1.84-10.47 2.274-13.739 2.274l-.02 6.698c3.934-.002 13.75.63 15.07 3.624a18.595 18.595 0 0 0 1.978 2.785c2.69 2.665-3.507 7.13-6.301 8.745l8.147 4.739a25.65 25.65 0 0 1 1.013-.552l-.956.552 24.092.024a10.902 10.902 0 0 1 1.975 6.252l45.455.035 11.33-6.294 14.881.012 8.207-4.733c-2.787-1.616-8.924-6.083-6.21-8.746a19.81 19.81 0 0 0 1.286-1.685l7.627.01 8.2-4.735c.007 0 .047-6.694.047-6.694-4.219.164-13.749-.633-15.072-3.63Z" style="mix-blend-mode:multiply" fill="url(#J)"/><path fill="#f5f5fa" d="M395.045 1034.938c-.008-2.6-4.59-5.874-6.883-7.207l.058 19.537c2.29 1.333 6.874 4.606 6.88 7.207Z"/><path fill="#bbbfe2" d="m468.465 1047.268-.057-19.537c-2.318 1.338-6.971 4.639-6.962 7.245l.053 19.537c-.006-2.606 4.648-5.905 6.966-7.245Z"/><path fill="url(#K)" d="M413.795 1057.387c8.034-4.641 21-4.641 28.978-.003 3.963 2.303 5.949 5.316 5.961 8.337l-.06-19.54c-.009-3.015-1.995-6.03-5.956-8.336-7.981-4.636-20.944-4.636-28.98 0-4.038 2.333-6.05 5.393-6.043 8.448l.052 19.537c-.005-3.055 2.012-6.115 6.048-8.443Z"/><path fill="#ced2f4" d="m396.104 1069.476-8.147-4.736.054 19.537 8.15 4.739-.057-19.54z"/><path fill="#bbbfe2" d="m468.259 1084.277-.057-19.537-8.205 4.736.057 19.54 8.205-4.739z"/><path fill="url(#L)" d="M411.281 1085.392c1.558.449 3.162.834 4.8 1.151 5.098.767 6.197 6.324 6.204 8.66l-.054-19.538c-.01-2.338-1.11-7.89-6.205-8.656a56.874 56.874 0 0 1-4.8-1.154c-4.594-1.564-12.325 2.005-15.122 3.62l.057 19.54c2.795-1.618 10.528-5.19 15.12-3.623Z"/><path fill="url(#M)" d="M437.84 1087.338a6.493 6.493 0 0 1 2.322-.792 58.44 58.44 0 0 0 4.802-1.15c4.62-1.57 12.31 2.001 15.09 3.62l-.057-19.54c-2.777-1.616-10.469-5.185-15.087-3.617a59.66 59.66 0 0 1-4.803 1.15 6.552 6.552 0 0 0-2.325.791c-3.15 1.817-3.817 5.972-3.996 7.955l.058 19.534c.178-1.978.843-6.135 3.995-7.951Z"/><path fill="#f1f1f6" d="M394.258 1055.994c2.69 2.663-3.507 7.13-6.301 8.746l8.147 4.736c2.797-1.616 10.528-5.185 15.122-3.621 1.56.449 3.165.834 4.8 1.154 5.16.772 6.222 6.463 6.202 8.746h11.558c.18-1.983.846-6.138 3.996-7.955a6.552 6.552 0 0 1 2.325-.791 59.66 59.66 0 0 0 4.803-1.15c4.618-1.568 12.31 2 15.087 3.617l8.205-4.736c-2.78-1.613-8.925-6.083-6.207-8.746a19.563 19.563 0 0 0 2.01-2.784 3.215 3.215 0 0 1 1.392-1.35c3.187-1.845 10.469-2.276 13.72-2.276l.035-6.696c-4.222.166-13.75-.633-15.07-3.629a18.83 18.83 0 0 0-1.976-2.78c-2.687-2.667 3.505-7.132 6.302-8.748l-8.15-4.735c-2.797 1.613-10.529 5.187-15.12 3.62a57.366 57.366 0 0 0-4.797-1.15c-5.165-.78-6.227-6.466-6.215-8.744l-11.568-.005c-.002 1.886-.769 6.105-3.963 7.947a6.632 6.632 0 0 1-2.338.799c-1.638.32-3.249.702-4.81 1.154-5.326 1.149-12.302-2.008-15.082-3.621l-8.203 4.735c2.78 1.616 8.923 6.08 6.203 8.744a18.594 18.594 0 0 0-2.003 2.787 3.26 3.26 0 0 1-1.393 1.352c-3.19 1.84-10.47 2.274-13.739 2.274l-.02 6.696c3.934 0 13.75.63 15.07 3.626a18.687 18.687 0 0 0 1.978 2.784Zm19.48-18.15c8.036-4.635 20.999-4.635 28.98 0 7.974 4.637 7.94 12.152-.094 16.79-8.021 4.634-20.999 4.629-28.97-.005-7.982-4.638-7.94-12.148.084-16.784Z"/><path fill="#ced2f4" d="M387.957 1064.74c2.794-1.615 8.991-6.083 6.301-8.746a18.687 18.687 0 0 1-1.978-2.784c-1.32-2.996-11.136-3.626-15.07-3.626l.055 19.537a49.064 49.064 0 0 1 10.704 1.151Z"/><path fill="#bbbfe2" d="m433.844 1095.289-.058-19.534h-11.558l.057 19.537 11.559-.003z"/><path fill="url(#N)" d="m479.172 1069.12-.055-19.536c-3.251 0-10.533.431-13.72 2.275a3.215 3.215 0 0 0-1.392 1.35 19.563 19.563 0 0 1-2.01 2.785c-2.718 2.663 3.427 7.133 6.207 8.746l.017 5.612a48.345 48.345 0 0 1 10.953-1.231Z"/><text font-family="MyriadPro-Regular,Myriad Pro" font-size="12" transform="translate(408.951 365.213)">planning-01</text></g></svg>