<svg xmlns="http://www.w3.org/2000/svg" viewBox="0 0 1364 960"><linearGradient id="a" x1="1011.522" x2="1162.244" y1="805.373" y2="542.127" gradientTransform="rotate(3.533 3079.249 -314.91)" gradientUnits="userSpaceOnUse"><stop offset="0" stop-color="#84d4ff"/><stop offset="1" stop-color="#f5cbfb"/></linearGradient><path fill="url(#a)" d="M1056.288 554.037c-21.053 29.959-6.518 77.363-26.48 109.242-12.212 17.873-32.453 19.213-50.063 24.275-30.86 11.908-64.778 27.075-89.729 55.468-10.797 13.927-18.059 32.243-30.458 43.729-6.355-13.754-11.745-31.393-14.664-49.913.177-.471.372-.954.563-1.421 7.601-18.329 20.174-34.998 38.745-43.143 16.908-7.42 37.398-8.369 51.402-21.497 7.664-7.182 11.748-17.1 15.818-26.555 4.21-9.759 8.837-18.9 16.612-26.321 12.966-12.395 31.465-20.541 39.554-37.389 4.925-10.286 4.164-21.834 4.814-32.909.355-6.194 1.248-12.386 3.799-18.092 2.176-4.871 5.289-9.228 8.801-13.218 6.927-7.872 15.206-14.407 22.254-22.164 7.159-7.864 12.375-17.094 15.911-27.104 7.715-21.863 7.641-45.309 9.875-68.112 2.029-20.63 6.094-42.676 18.884-59.604.434-.575.881-1.147 1.34-1.701 3.102.747 6.166 2.39 9.104 5.056 21.775 25.582-7.837 68.594-6.34 100.54 5.221 36.334 21.478 60.224-13.771 86.972-9.061 7.236-18.922 13.537-25.971 23.861z"/><linearGradient id="b" x1="969.469" x2="1120.191" y1="781.297" y2="518.05" gradientTransform="rotate(3.533 3079.249 -314.91)" gradientUnits="userSpaceOnUse"><stop offset="0" stop-color="#84d4ff"/><stop offset="1" stop-color="#f5cbfb"/></linearGradient><path fill="url(#b)" d="M1073.043 398.912c-2.234 22.803-2.16 46.249-9.875 68.112-3.536 10.01-8.752 19.24-15.911 27.104-7.048 7.756-15.327 14.292-22.254 22.164-3.512 3.99-6.624 8.348-8.801 13.218-2.551 5.706-3.445 11.898-3.799 18.092-.65 11.075.111 22.623-4.814 32.909-8.089 16.849-26.588 24.994-39.554 37.389-7.775 7.421-12.403 16.562-16.612 26.321-4.069 9.454-8.154 19.372-15.818 26.555-14.004 13.128-34.493 14.078-51.402 21.497-18.572 8.145-31.144 24.814-38.745 43.143-.191.467-.386.95-.563 1.421a88.04 88.04 0 0 1-.424-2.823c-6.173-42.95 1.237-89.783 40.789-103.584 20.641-2.155 37.876-1.917 40.747-33.828 10.589-52.08 3.777-109.498 56.794-124.932 23.083-8.485 61.366-10.662 71.065-44.28 2.008-13.837-2.456-27.171-.828-41.005 1.143-24.723 20.202-51.812 38.595-49.099.54.061 1.086.168 1.636.32a46.776 46.776 0 0 0-1.34 1.701c-12.792 16.929-16.857 38.975-18.886 59.605z"/><path fill="#FFF" d="M1073.043 398.912c-2.234 22.803-2.16 46.249-9.875 68.112-3.536 10.01-8.752 19.24-15.911 27.104-7.048 7.756-15.327 14.292-22.254 22.164-3.512 3.99-6.624 8.348-8.801 13.218-2.551 5.706-3.445 11.898-3.799 18.092-.65 11.075.111 22.623-4.814 32.909-8.089 16.849-26.588 24.994-39.554 37.389-7.775 7.421-12.403 16.562-16.612 26.321-4.069 9.454-8.154 19.372-15.818 26.555-14.004 13.128-34.493 14.078-51.402 21.497-18.572 8.145-31.144 24.814-38.745 43.143-.191.467-.386.95-.563 1.421a88.04 88.04 0 0 1-.424-2.823 108.424 108.424 0 0 1 6.468-12.831c4.592-7.734 10.284-14.844 17.195-20.603 7.357-6.127 15.829-10.184 24.902-13.129 9.257-2.992 18.861-5.046 27.797-8.956 10.225-4.454 17.808-11.538 23.087-21.38 5.159-9.635 8.306-20.258 14.202-29.526 4.97-7.795 11.978-13.796 19.253-19.359 7.604-5.795 15.664-11.212 22.096-18.362 7.822-8.679 10.522-18.934 11.061-30.427.514-11.12.17-22.444 5.378-32.623 4.614-9.013 12.157-16.047 19.426-22.894 8.024-7.555 15.703-15.201 21.022-24.961 5.651-10.401 8.787-21.961 10.723-33.566 5.846-34.927 1.08-79.154 24.551-108.109.54.061 1.086.168 1.636.32a46.776 46.776 0 0 0-1.34 1.701c-12.791 16.927-16.856 38.973-18.885 59.603z"/><linearGradient id="c" x1="1042.108" x2="1192.829" y1="822.88" y2="559.635" gradientTransform="rotate(3.533 3079.249 -314.91)" gradientUnits="userSpaceOnUse"><stop offset="0" stop-color="#84d4ff"/><stop offset="1" stop-color="#f5cbfb"/></linearGradient><path fill="url(#c)" d="M1117.312 461.164c-1.731-12.68-.434-26.446 6.47-37.494.477-.763-.625-1.496-1.157-.776-6.616 8.956-8.504 20.39-8.275 31.294.13 6.175.624 12.269 1.41 18.394.797 6.201 1.727 12.389 2.241 18.623.938 11.361.598 23.535-4.854 33.835-4.418 8.347-11.576 14.617-18.459 20.885-3.972 3.617-7.967 7.24-11.469 11.324-3.214 3.749-7.02 8.407-7.636 13.445-.125 1.022 1.366 1.846 2.099 1.026 1.544-1.731 2.709-3.691 4.073-5.571 1.344-1.852 2.736-3.647 4.288-5.332 3.17-3.443 6.606-6.62 10.106-9.722 7.068-6.266 14.468-12.525 19.563-20.592 13.339-21.118 4.695-46.666 1.6-69.339z"/><linearGradient id="d" x1="1060.888" x2="1211.608" y1="833.632" y2="570.387" gradientTransform="rotate(3.533 3079.249 -314.91)" gradientUnits="userSpaceOnUse"><stop offset="0" stop-color="#84d4ff"/><stop offset="1" stop-color="#f5cbfb"/></linearGradient><path fill="url(#d)" d="M1075.268 578.32c.281-.839-.904-1.452-1.4-.695-1.324 2.024-2.425 4.246-3.161 6.553-.381 1.193-.552 2.501-.689 3.745-.136 1.234-.383 2.787-.047 3.989.616 2.208 3.687 1.995 3.984-.29.056-.431-.019-.855-.061-1.284-.002-.017-.046-.539-.04-.445a23.91 23.91 0 0 1-.047-1.735c.007-1.115.141-2.212.209-3.322a25.22 25.22 0 0 1 1.252-6.516z"/><linearGradient id="e" x1="1018.52" x2="1169.245" y1="918.093" y2="654.842" gradientTransform="rotate(8.15 3113.923 -413.891)" gradientUnits="userSpaceOnUse"><stop offset="0" stop-color="#84d4ff"/><stop offset="1" stop-color="#f5cbfb"/></linearGradient><path fill="url(#e)" d="M1068.817 327.035c-3.581 1.536-7.077 3.33-10.277 5.561-3.202 2.233-6.068 5.094-8.61 8.043-5.137 5.96-9.017 13.02-11.172 20.589-1.248 4.384-1.948 8.875-2.011 13.435-.017 1.187.578 2.272 1.849 2.467 1.052.162 2.448-.672 2.467-1.849.235-14.71 7.178-29.07 18.402-38.556 3.242-2.74 6.536-5.331 10.362-7.212 1.526-.751.591-3.165-1.01-2.478z"/><linearGradient id="f" x1="450.256" x2="532.007" y1="67.1" y2="166.623" gradientUnits="userSpaceOnUse"><stop offset="0" stop-color="#ff8fd6"/><stop offset="1" stop-color="#c32eff"/></linearGradient><path fill="url(#f)" d="M569.93 110.216c-5.629-1.356-12.395 6.076-15.113 16.602-2.268 8.783-.99 16.924 2.762 20.174-.181.317-.36.635-.545.948-4.714 8.019-10.223 16.113-17.583 22.087-.008.006-.012.013-.02.019-.65-.98-1.297-1.962-1.972-2.929-4.757-6.816-10.054-13.2-15.606-19.38 3.643-2.953 5.386-7.467 7.098-11.631a124.95 124.95 0 0 0 7.561-26.236c.161.003.324.001.486-.01 5.787-.392 9.843-9.481 9.058-20.302-.785-10.822-6.112-19.276-11.899-18.885-5.787.392-9.843 9.481-9.058 20.302.615 8.482 4.021 15.509 8.253 17.963a120.097 120.097 0 0 1-2.34 10.791 124.95 124.95 0 0 1-4.349 13.287c-1.663 4.257-3.281 9.299-6.985 12.331-6.947-7.588-14.225-14.912-21.314-22.393a1.66 1.66 0 0 0 .233-.336c4.139-8.022 6.057-16.679 5.879-25.636a76.969 76.969 0 0 0-.239-4.483c4.139-2.717 6.74-10.41 6.098-19.267-.785-10.821-6.112-19.276-11.899-18.885-5.788.392-9.843 9.481-9.059 20.303.767 10.579 5.876 18.892 11.513 18.893.566 9.16-.462 18.243-4.849 26.94-3.804-4.064-7.537-8.185-11.107-12.438-5.667-6.751-10.931-13.852-15.364-21.394 3.466-3.675 3.113-12.312-1.187-20.841-4.917-9.753-13.13-15.67-18.346-13.216-5.215 2.454-5.458 12.349-.542 22.101 4.608 9.14 12.112 14.912 17.331 13.58 7.025 11.91 16.022 22.685 25.541 32.988-4.486.226-8.971-.615-13.389-1.292-5.096-.782-10.191-1.596-15.237-2.643a135.021 135.021 0 0 1-9.861-2.423c-1.45-4.54-7.525-9.454-15.749-12.195-10.615-3.537-20.755-2.11-22.647 3.188-1.892 5.298 5.18 12.46 15.795 15.998 10.616 3.537 20.755 2.11 22.647-3.187.055-.153.076-.313.116-.469 3.101.859 6.239 1.61 9.402 2.254 5.066 1.032 10.171 1.863 15.284 2.648 5.29.811 10.569 1.733 15.937 1.116.148-.017.28-.052.402-.095a746.063 746.063 0 0 0 6.65 6.974c5.042 5.23 10.109 10.448 15.021 15.794a125.482 125.482 0 0 1-39.702 3.46c-1.605-4.601-8.756-9.002-17.917-10.58-11.056-1.903-20.843 1.027-21.861 6.544-1.018 5.517 7.119 11.533 18.174 13.437 10.823 1.863 20.408-.912 21.762-6.205 13.665.961 27.466-.256 40.793-3.684.414-.106.714-.324.922-.593 3.163 3.505 6.248 7.073 9.199 10.751a157.576 157.576 0 0 1 9.061 12.51c-.137.024-.276.06-.418.121a102.976 102.976 0 0 1-27.732 7.669c-2.517.327-5.111.594-7.737.768-2.726-3.965-10.092-6.967-18.848-7.246-11.223-.359-20.477 3.892-20.669 9.493-.191 5.601 8.752 10.432 19.975 10.791 11.224.358 20.477-3.892 20.669-9.493a5.009 5.009 0 0 0-.008-.459c2.109-.153 4.2-.358 6.25-.605 10.208-1.227 20.162-3.992 29.542-8.058.254-.11.446-.256.59-.423a172.474 172.474 0 0 1 10.633 19.735c.593 1.294 1.157 2.598 1.723 3.902a1.827 1.827 0 0 0-.401.117 95.67 95.67 0 0 1-15.652 5.096c-3.168-3.501-10.054-6.067-18.116-6.325-11.224-.359-20.477 3.892-20.669 9.493-.191 5.601 8.752 10.432 19.975 10.791 11.224.358 20.477-3.892 20.669-9.493a5.248 5.248 0 0 0-.201-1.614 98.753 98.753 0 0 0 15.435-5.089c.07-.029.124-.066.184-.101 5.005 11.992 8.987 24.362 12.636 36.799.573 1.955 3.814 1.386 3.237-.583-3.812-12.995-8.015-25.987-13.314-38.508 3.744-2.77 7.422-5.779 10.706-9.109.211.112.417.231.643.316 5.4 2.048 13.104-4.478 17.207-14.576 4.103-10.098 3.051-19.944-2.35-21.991-5.4-2.048-13.103 4.478-17.207 14.577-3.167 7.796-3.25 15.425-.644 19.448-2.961 3.012-6.268 5.753-9.659 8.3-3.588-8.141-7.686-16.057-12.478-23.625.165-.062.329-.146.487-.275 7.89-6.405 13.888-15.184 18.808-23.856l.08-.145c5.54.894 12.036-6.424 14.686-16.684 2.718-10.525.357-20.157-5.271-21.513z"/><linearGradient id="g" x1="1090.493" x2="922.548" y1="705.227" y2="784.757" gradientUnits="userSpaceOnUse"><stop offset="0" stop-color="#ff8fd6"/><stop offset="1" stop-color="#c32eff"/></linearGradient><path fill="url(#g)" d="M968.172 824.471c3.777-2.491 5.534-7.406 4.917-11.883-.617-4.476-3.321-8.476-6.773-11.392-3.453-2.916-7.622-4.856-11.849-6.462-6.995-2.658-14.553-4.487-21.948-3.866a214.129 214.129 0 0 1 23.582-22.985c.768-.641 1.547-1.268 2.323-1.899l13.758 19.056c3.06 4.238 6.229 8.582 10.651 11.372 4.423 2.791 10.456 3.693 14.825.812 3.777-2.491 5.534-7.406 4.917-11.883-.617-4.476-3.32-8.475-6.773-11.391-3.453-2.916-7.622-4.856-11.849-6.462-7.215-2.741-15.031-4.604-22.647-3.802a218.475 218.475 0 0 1 30.558-20.086l14.68 18.773c3.22 4.117 6.554 8.336 11.081 10.955 4.527 2.619 10.589 3.29 14.846.244 3.679-2.633 5.246-7.613 4.458-12.062-.789-4.449-3.644-8.342-7.206-11.123-3.562-2.782-7.803-4.56-12.089-6.004-6.861-2.31-14.222-3.83-21.364-3.108a215.105 215.105 0 0 1 24.24-10.641c2.455-.9 4.931-1.737 7.417-2.543l15.734 18.809c3.354 4.009 6.825 8.117 11.436 10.585 4.61 2.469 10.692 2.941 14.846-.243 3.591-2.753 4.993-7.781 4.058-12.201-.934-4.421-3.916-8.218-7.568-10.88-3.652-2.663-7.949-4.302-12.28-5.603-6.188-1.86-12.751-3.071-19.149-2.633a206.168 206.168 0 0 1 25.979-5.63l22.222 8.821c4.861 1.93 9.872 3.889 15.106 3.867 5.234-.022 10.811-2.498 12.949-7.272 1.849-4.127.688-9.212-2.241-12.654-2.928-3.441-7.361-5.36-11.843-5.965-4.483-.605-9.045-.002-13.476.913-8.166 1.686-16.374 4.608-22.561 10.127-.029.002-.055 0-.085.004a207.798 207.798 0 0 0-27.636 6.047c5.434-3.962 9.782-9.472 13.353-15.237 2.381-3.845 4.514-7.921 5.485-12.336.971-4.415.689-9.235-1.54-13.165-2.229-3.931-6.609-6.766-11.123-6.448-5.221.368-9.463 4.753-11.281 9.658-1.817 4.904-1.696 10.281-1.552 15.507l.66 23.875a214.854 214.854 0 0 0-31.966 13.278c4.673-5.319 7.718-12.069 9.853-18.883 1.352-4.314 2.406-8.79 2.25-13.306-.156-4.516-1.627-9.114-4.763-12.367s-8.086-4.914-12.38-3.487c-4.967 1.651-7.988 6.949-8.531 12.149-.542 5.201.911 10.377 2.349 15.402l6.569 22.948c-.319.174-.642.34-.961.516a221.544 221.544 0 0 0-29.784 19.7c4.433-6.579 6.358-14.679 7.153-22.625.45-4.498.575-9.092-.493-13.482-1.069-4.391-3.441-8.594-7.173-11.145s-8.917-3.175-12.833-.909c-4.53 2.621-6.416 8.419-5.893 13.621.523 5.201 2.995 9.975 5.423 14.604l11.443 21.82c-.13.104-.258.211-.387.316l-.222-.07.114.158a217.784 217.784 0 0 0-25.162 23.958c1.337-6.999.575-14.412-1.006-21.427-1.013-4.493-2.369-8.975-4.814-12.878-2.445-3.903-6.09-7.207-10.516-8.479-4.426-1.271-9.637-.215-12.692 3.231-3.535 3.986-3.492 10.196-1.313 15.058 2.179 4.862 6.104 8.686 9.938 12.384l16.338 15.757.403.559a207.591 207.591 0 0 0-21.964 31.331c-.669 1.172 1.034 2.441 1.712 1.253a207.075 207.075 0 0 1 21.534-30.809l13.051 18.079c3.06 4.237 6.229 8.581 10.651 11.372 4.422 2.785 10.454 3.689 14.824.807z"/><linearGradient id="h" x1="524.964" x2="944.369" y1="523.129" y2="523.129" gradientUnits="userSpaceOnUse"><stop offset="0" stop-color="#b0deff"/><stop offset="1" stop-color="#82baff"/></linearGradient><path fill="url(#h)" d="M944.368 183.474v623.259c0 30.946-25.104 56.049-56.05 56.049H581.013c-30.958 0-56.049-25.104-56.049-56.049V183.474h419.404z"/><path fill="#FFF" d="M586.811 156.247c0 7.597-6.169 13.765-13.768 13.765-7.599 0-13.768-6.169-13.768-13.765 0-7.602 6.169-13.771 13.768-13.771 7.599 0 13.768 6.169 13.768 13.771z"/><path fill="#FFF" d="M582.357 156.246c0 5.141-4.172 9.314-9.315 9.314-5.141 0-9.316-4.174-9.316-9.314 0-5.142 4.175-9.316 9.316-9.316 5.143 0 9.315 4.174 9.315 9.316zM614.995 156.246c0 5.141-4.174 9.314-9.316 9.314s-9.315-4.174-9.315-9.314c0-5.142 4.172-9.316 9.315-9.316s9.316 4.174 9.316 9.316zM611.978 221.608h-55.764a2.898 2.898 0 0 1-2.898-2.898v-.838c0-1.6 1.297-2.898 2.898-2.898h55.764c1.6 0 2.898 1.298 2.898 2.898v.838a2.898 2.898 0 0 1-2.898 2.898zM611.978 239.651h-55.764a2.898 2.898 0 0 1-2.898-2.898v-.838c0-1.6 1.297-2.898 2.898-2.898h55.763c1.6 0 2.898 1.297 2.898 2.898v.838a2.897 2.897 0 0 1-2.897 2.898zM611.978 257.695h-55.764a2.899 2.899 0 0 1-2.898-2.898v-.838c0-1.6 1.297-2.898 2.898-2.898h55.764c1.6 0 2.898 1.298 2.898 2.898v.838c0 1.6-1.298 2.898-2.898 2.898zM826.639 469.42H647.863c-11.589 0-20.983 9.394-20.983 20.983v18.468c0 11.588 9.394 20.983 20.983 20.983h178.776c11.588 0 20.983-9.394 20.983-20.983v-18.468c0-11.589-9.394-20.983-20.983-20.983z"/><circle cx="603.663" cy="316.323" r="25.525" fill="#FFF" transform="rotate(-1.897 603.862 316.422)"/><linearGradient id="i" x1="593.35" x2="613.168" y1="309.105" y2="309.105" gradientUnits="userSpaceOnUse"><stop offset="0" stop-color="#ad88ff"/><stop offset="1" stop-color="#6038ba"/></linearGradient><circle cx="603.259" cy="309.105" r="9.909" fill="url(#i)"/><linearGradient id="j" x1="591.43" x2="615.966" y1="324.324" y2="324.324" gradientUnits="userSpaceOnUse"><stop offset="0" stop-color="#ad88ff"/><stop offset="1" stop-color="#6038ba"/></linearGradient><path fill="url(#j)" d="M612.38 319.063a2.157 2.157 0 0 0-2.696.047 9.877 9.877 0 0 1-6.256 2.251 9.84 9.84 0 0 1-6.103-2.08 2.133 2.133 0 0 0-2.703.056c-1.993 1.721-3.202 4.197-3.192 7.41l.001.29a3.008 3.008 0 0 0 3.019 2.998l18.517-.062a3.009 3.009 0 0 0 2.999-3.019l-.001-.29c-.012-3.349-1.38-5.89-3.585-7.601z"/><circle cx="604.673" cy="397.467" r="26.674" fill="#FFF"/><linearGradient id="k" x1="595.501" x2="613.777" y1="387.889" y2="387.889" gradientUnits="userSpaceOnUse"><stop offset="0" stop-color="#ad88ff"/><stop offset="1" stop-color="#6038ba"/></linearGradient><path fill="url(#k)" d="m613.766 386.068.012 3.488a1.256 1.256 0 0 1-2.514.008l-.011-3.175a3.059 3.059 0 0 0-3.068-3.048l-7.122.024a3.062 3.062 0 0 0-3.05 3.071l.028 8.505-2.511.008-.029-8.821a5.259 5.259 0 0 1 5.241-5.276l7.745-.026a5.264 5.264 0 0 1 5.279 5.242z"/><path fill="#C7CBFF" d="m605.297 403.444.224 2.692a.19.19 0 0 1-.188.206l-1.264.004a.192.192 0 0 1-.192-.205l.206-2.693a1.176 1.176 0 0 1-.572-1.037 1.185 1.185 0 0 1 1.107-1.146c.678-.038 1.244.5 1.246 1.171a1.17 1.17 0 0 1-.567 1.008z"/><linearGradient id="l" x1="589.83" x2="619.522" y1="404.877" y2="404.877" gradientUnits="userSpaceOnUse"><stop offset="0" stop-color="#ad88ff"/><stop offset="1" stop-color="#6038ba"/></linearGradient><path fill="url(#l)" d="m619.276 395.659-29.221.098a3.57 3.57 0 0 0-.225 1.269l.012 3.66c.025 7.43 6.689 13.436 14.884 13.408 4.1-.014 7.803-1.533 10.48-3.977 2.68-2.446 4.329-5.815 4.316-9.53l-.012-3.66a3.657 3.657 0 0 0-.234-1.268zm-14.569 12.859a4.963 4.963 0 1 1-.032-9.926 4.963 4.963 0 0 1 .032 9.926z"/><linearGradient id="m" x1="590.456" x2="618.867" y1="393.974" y2="393.974" gradientUnits="userSpaceOnUse"><stop offset="0" stop-color="#ad88ff"/><stop offset="1" stop-color="#6038ba"/></linearGradient><path fill="url(#m)" d="m618.867 394.872-28.411.095c.763-1.142 2.146-1.911 3.728-1.917l20.945-.07c1.582-.005 2.967.755 3.738 1.892z"/><path fill="#C7CBFF" d="m605.297 403.444.224 2.692a.19.19 0 0 1-.188.206l-1.264.004a.192.192 0 0 1-.192-.205l.206-2.693a1.176 1.176 0 0 1-.572-1.037 1.185 1.185 0 0 1 1.107-1.146c.678-.038 1.244.5 1.246 1.171a1.17 1.17 0 0 1-.567 1.008z"/><path fill="#C7CBFF" d="m605.297 403.444.224 2.692a.19.19 0 0 1-.188.206l-1.264.004a.192.192 0 0 1-.192-.205l.206-2.693a1.176 1.176 0 0 1-.572-1.037 1.185 1.185 0 0 1 1.107-1.146c.678-.038 1.244.5 1.246 1.171a1.17 1.17 0 0 1-.567 1.008z"/><linearGradient id="n" x1="603.511" x2="605.865" y1="403.805" y2="403.805" gradientUnits="userSpaceOnUse"><stop offset="0" stop-color="#ad88ff"/><stop offset="1" stop-color="#6038ba"/></linearGradient><path fill="url(#n)" d="m605.297 403.444.224 2.692a.19.19 0 0 1-.188.206l-1.264.004a.192.192 0 0 1-.192-.205l.206-2.693a1.176 1.176 0 0 1-.572-1.037 1.185 1.185 0 0 1 1.107-1.146c.678-.038 1.244.5 1.246 1.171a1.17 1.17 0 0 1-.567 1.008z"/><path fill="#FFF" d="m869.969 332.794-200.306.668c-7.111.024-12.895-5.722-12.919-12.833l-.031-9.349c-.024-7.111 5.722-12.895 12.833-12.919l200.306-.668c7.111-.024 12.895 5.722 12.919 12.833l.031 9.349c.024 7.112-5.722 12.896-12.833 12.919zM692.771 383.689l-22.687.076a6.407 6.407 0 0 0-6.386 6.429l.076 22.687a6.407 6.407 0 0 0 6.429 6.386l22.687-.076a6.408 6.408 0 0 0 6.386-6.429l-.076-22.688a6.407 6.407 0 0 0-6.429-6.385zM751.286 383.493l-22.687.076a6.407 6.407 0 0 0-6.386 6.429l.076 22.687a6.407 6.407 0 0 0 6.429 6.386l22.687-.076a6.408 6.408 0 0 0 6.386-6.429l-.076-22.687a6.409 6.409 0 0 0-6.429-6.386zM809.801 383.298l-22.687.076a6.407 6.407 0 0 0-6.386 6.429l.076 22.687a6.407 6.407 0 0 0 6.429 6.386l22.687-.076a6.407 6.407 0 0 0 6.386-6.429l-.076-22.687a6.408 6.408 0 0 0-6.429-6.386zM868.316 383.103l-22.687.076a6.407 6.407 0 0 0-6.386 6.429l.076 22.688a6.407 6.407 0 0 0 6.429 6.386l22.687-.076a6.408 6.408 0 0 0 6.386-6.429l-.076-22.688a6.407 6.407 0 0 0-6.429-6.386z"/><linearGradient id="o" x1="672.888" x2="690.518" y1="401.243" y2="401.243" gradientUnits="userSpaceOnUse"><stop offset="0" stop-color="#ff5c9c"/><stop offset="1" stop-color="#ff7ace"/></linearGradient><path fill="url(#o)" d="m682.307 391.637.916 6.281c.046.315.37.507.668.396l5.95-2.211c.534-.198.93.507.484.86l-4.981 3.934a.5.5 0 0 0-.009.777l4.89 4.047c.439.363.026 1.059-.503.849l-5.898-2.347a.5.5 0 0 0-.677.381l-1.06 6.258c-.095.561-.905.552-.987-.011l-.916-6.281a.499.499 0 0 0-.668-.396l-5.95 2.211c-.534.198-.93-.507-.484-.86l4.981-3.934a.5.5 0 0 0 .009-.777l-4.89-4.047c-.439-.363-.026-1.059.503-.849l5.897 2.347a.5.5 0 0 0 .677-.381l1.06-6.258c.096-.562.906-.553.988.011z"/><linearGradient id="p" x1="730.315" x2="747.945" y1="401.052" y2="401.052" gradientUnits="userSpaceOnUse"><stop offset="0" stop-color="#ff5c9c"/><stop offset="1" stop-color="#ff7ace"/></linearGradient><path fill="url(#p)" d="m739.734 391.445.916 6.281c.046.315.37.507.668.396l5.95-2.211c.534-.198.93.507.484.86l-4.981 3.934a.5.5 0 0 0-.009.777l4.89 4.047c.439.363.026 1.059-.503.849l-5.898-2.347a.5.5 0 0 0-.677.381l-1.06 6.258c-.095.561-.904.552-.987-.011l-.916-6.281a.499.499 0 0 0-.668-.396l-5.95 2.211c-.534.198-.93-.507-.484-.86l4.981-3.934a.5.5 0 0 0 .009-.777l-4.89-4.047c-.438-.363-.026-1.059.503-.849l5.897 2.347a.5.5 0 0 0 .677-.381l1.06-6.258c.096-.562.906-.552.988.011z"/><linearGradient id="q" x1="789.7" x2="807.33" y1="400.561" y2="400.561" gradientUnits="userSpaceOnUse"><stop offset="0" stop-color="#ff5c9c"/><stop offset="1" stop-color="#ff7ace"/></linearGradient><path fill="url(#q)" d="m799.119 390.954.916 6.281c.046.315.37.507.668.396l5.95-2.211c.533-.198.93.507.484.86l-4.981 3.934a.5.5 0 0 0-.009.777l4.89 4.047c.438.363.026 1.059-.503.849l-5.898-2.347a.5.5 0 0 0-.677.381l-1.06 6.258c-.095.561-.905.552-.987-.011l-.916-6.281a.499.499 0 0 0-.668-.396l-5.95 2.211c-.534.198-.93-.507-.484-.86l4.981-3.934a.5.5 0 0 0 .009-.777l-4.89-4.047c-.439-.363-.026-1.059.503-.849l5.898 2.347a.5.5 0 0 0 .677-.381l1.06-6.258c.095-.561.904-.552.987.011z"/><linearGradient id="r" x1="848.337" x2="865.966" y1="400.365" y2="400.365" gradientUnits="userSpaceOnUse"><stop offset="0" stop-color="#ff5c9c"/><stop offset="1" stop-color="#ff7ace"/></linearGradient><path fill="url(#r)" d="m857.755 390.759.916 6.281c.046.315.37.507.668.396l5.95-2.211c.534-.198.93.507.484.86l-4.981 3.934a.5.5 0 0 0-.009.777l4.89 4.047c.439.363.026 1.059-.503.849l-5.898-2.347a.5.5 0 0 0-.677.381l-1.06 6.258c-.095.561-.904.552-.987-.011l-.916-6.281a.499.499 0 0 0-.668-.396l-5.95 2.211c-.534.198-.93-.507-.483-.86l4.981-3.934a.5.5 0 0 0 .009-.777l-4.89-4.047c-.438-.363-.026-1.059.503-.849l5.898 2.347a.5.5 0 0 0 .677-.381l1.06-6.258c.094-.562.904-.553.986.011z"/><linearGradient id="s" x1="672.415" x2="682.912" y1="317.534" y2="317.534" gradientUnits="userSpaceOnUse"><stop offset="0" stop-color="#ad88ff"/><stop offset="1" stop-color="#6038ba"/></linearGradient><path fill="url(#s)" d="M672.415 317.534a5.249 5.249 0 1 1 10.498 0 5.249 5.249 0 0 1-10.498 0z"/><linearGradient id="t" x1="694.027" x2="704.524" y1="317.534" y2="317.534" gradientUnits="userSpaceOnUse"><stop offset="0" stop-color="#ad88ff"/><stop offset="1" stop-color="#6038ba"/></linearGradient><circle cx="699.276" cy="317.534" r="5.249" fill="url(#t)"/><linearGradient id="u" x1="715.639" x2="726.136" y1="317.534" y2="317.534" gradientUnits="userSpaceOnUse"><stop offset="0" stop-color="#ad88ff"/><stop offset="1" stop-color="#6038ba"/></linearGradient><circle cx="720.888" cy="317.534" r="5.249" fill="url(#u)"/><linearGradient id="v" x1="737.251" x2="747.749" y1="317.534" y2="317.534" gradientUnits="userSpaceOnUse"><stop offset="0" stop-color="#ad88ff"/><stop offset="1" stop-color="#6038ba"/></linearGradient><circle cx="742.5" cy="317.534" r="5.249" fill="url(#v)"/><linearGradient id="w" x1="758.863" x2="769.361" y1="317.534" y2="317.534" gradientUnits="userSpaceOnUse"><stop offset="0" stop-color="#ad88ff"/><stop offset="1" stop-color="#6038ba"/></linearGradient><circle cx="764.112" cy="317.534" r="5.249" fill="url(#w)"/><linearGradient id="x" x1="780.476" x2="790.973" y1="317.534" y2="317.534" gradientUnits="userSpaceOnUse"><stop offset="0" stop-color="#ad88ff"/><stop offset="1" stop-color="#6038ba"/></linearGradient><circle cx="785.724" cy="317.534" r="5.249" fill="url(#x)"/><linearGradient id="y" x1="802.088" x2="812.585" y1="317.534" y2="317.534" gradientUnits="userSpaceOnUse"><stop offset="0" stop-color="#ad88ff"/><stop offset="1" stop-color="#6038ba"/></linearGradient><circle cx="807.336" cy="317.534" r="5.249" fill="url(#y)"/><linearGradient id="z" x1="823.7" x2="834.197" y1="317.534" y2="317.534" gradientUnits="userSpaceOnUse"><stop offset="0" stop-color="#ad88ff"/><stop offset="1" stop-color="#6038ba"/></linearGradient><circle cx="828.948" cy="317.534" r="5.249" fill="url(#z)"/><linearGradient id="A" x1="801.454" x2="827.02" y1="497.553" y2="497.553" gradientUnits="userSpaceOnUse"><stop offset="0" stop-color="#ff7ace"/><stop offset="1" stop-color="#ff5296"/></linearGradient><path fill="url(#A)" d="M811.778 507.944a58.67 58.67 0 0 1-.028-1.459c0-1.909.271-3.558.811-4.945.397-1.045 1.036-2.099 1.919-3.162.649-.774 1.815-1.905 3.5-3.391 1.684-1.487 2.779-2.671 3.284-3.554a5.723 5.723 0 0 0 .756-2.892c0-1.892-.739-3.554-2.216-4.986-1.477-1.432-3.289-2.148-5.432-2.148-2.073 0-3.802.649-5.189 1.946-1.388 1.297-2.298 3.324-2.73 6.08l-5-.594c.45-3.694 1.788-6.522 4.014-8.486 2.224-1.964 5.166-2.946 8.824-2.946 3.873 0 6.963 1.054 9.269 3.162 2.306 2.108 3.459 4.657 3.459 7.648 0 1.73-.405 3.324-1.216 4.783-.811 1.459-2.396 3.234-4.757 5.324-1.585 1.406-2.621 2.442-3.107 3.108a6.955 6.955 0 0 0-1.082 2.297c-.234.865-.369 2.27-.405 4.216h-4.674zm-.298 9.756v-5.54h5.54v5.54h-5.54z"/><linearGradient id="B" x1="719.948" x2="719.948" y1="486.515" y2="528.977" gradientUnits="userSpaceOnUse"><stop offset="0" stop-color="#ff7ace"/><stop offset="1" stop-color="#ff5296"/></linearGradient><path fill="url(#B)" d="M651.469 514.493V479.49h23.615v4.131h-18.982v10.84h16.427v4.131h-16.427v15.902h-4.633zm27.482-12.678c0-4.696 1.305-8.174 3.916-10.434 2.181-1.878 4.839-2.818 7.975-2.818 3.486 0 6.335 1.142 8.548 3.426 2.212 2.284 3.319 5.44 3.319 9.467 0 3.264-.49 5.831-1.469 7.701-.979 1.871-2.404 3.323-4.274 4.358-1.871 1.034-3.912 1.551-6.125 1.551-3.55 0-6.419-1.138-8.608-3.414-2.187-2.276-3.282-5.555-3.282-9.837zm4.418 0c0 3.247.708 5.679 2.125 7.294 1.417 1.616 3.2 2.424 5.348 2.424 2.133 0 3.907-.811 5.325-2.436 1.417-1.623 2.125-4.099 2.125-7.425 0-3.136-.713-5.512-2.137-7.127-1.425-1.616-3.196-2.423-5.313-2.423-2.149 0-3.932.804-5.348 2.411-1.417 1.607-2.125 4.035-2.125 7.282zm24.33 12.678v-25.357h3.868v3.844c.987-1.799 1.898-2.984 2.734-3.558a4.773 4.773 0 0 1 2.758-.859c1.448 0 2.921.462 4.418 1.385l-1.481 3.988c-1.05-.621-2.101-.931-3.152-.931-.939 0-1.783.282-2.531.847-.748.566-1.282 1.349-1.599 2.352-.478 1.528-.717 3.2-.717 5.014v13.276h-4.298zm15.544 2.101 4.178.621c.175 1.289.66 2.228 1.457 2.817 1.066.796 2.522 1.194 4.369 1.194 1.99 0 3.526-.398 4.608-1.194 1.083-.796 1.815-1.91 2.197-3.342.222-.876.326-2.714.31-5.516-1.878 2.213-4.218 3.319-7.02 3.319-3.486 0-6.184-1.257-8.094-3.772-1.91-2.515-2.865-5.531-2.865-9.049 0-2.419.437-4.652 1.313-6.698.876-2.045 2.145-3.625 3.808-4.739 1.664-1.114 3.618-1.672 5.862-1.672 2.993 0 5.46 1.21 7.402 3.629v-3.056h3.964v21.919c0 3.947-.402 6.745-1.206 8.393-.804 1.648-2.077 2.949-3.82 3.904-1.743.955-3.888 1.433-6.435 1.433-3.024 0-5.468-.681-7.33-2.042-1.863-1.361-2.762-3.411-2.698-6.149zm3.557-15.233c0 3.327.66 5.754 1.982 7.283 1.321 1.528 2.977 2.292 4.966 2.292 1.974 0 3.63-.76 4.966-2.28 1.337-1.52 2.005-3.904 2.005-7.151 0-3.104-.689-5.444-2.065-7.02-1.377-1.576-3.036-2.363-4.978-2.363-1.91 0-3.534.776-4.871 2.328-1.336 1.551-2.005 3.855-2.005 6.911zm22.827.454c0-4.696 1.305-8.174 3.916-10.434 2.181-1.878 4.839-2.818 7.975-2.818 3.486 0 6.335 1.142 8.548 3.426 2.212 2.284 3.319 5.44 3.319 9.467 0 3.264-.49 5.831-1.469 7.701-.979 1.871-2.404 3.323-4.274 4.358-1.871 1.034-3.912 1.551-6.124 1.551-3.55 0-6.42-1.138-8.608-3.414-2.188-2.276-3.283-5.555-3.283-9.837zm4.418 0c0 3.247.708 5.679 2.125 7.294 1.417 1.616 3.2 2.424 5.349 2.424 2.133 0 3.907-.811 5.324-2.436 1.417-1.623 2.125-4.099 2.125-7.425 0-3.136-.713-5.512-2.137-7.127-1.425-1.616-3.196-2.423-5.312-2.423-2.149 0-3.932.804-5.349 2.411-1.418 1.607-2.125 4.035-2.125 7.282zm33.761 8.834.621 3.796c-1.21.255-2.292.382-3.247.382-1.56 0-2.77-.247-3.63-.74-.859-.493-1.465-1.142-1.815-1.946-.35-.803-.525-2.495-.525-5.074v-14.589h-3.152v-3.343h3.152v-6.279l4.274-2.579v8.858h4.322v3.343h-4.322v14.827c0 1.227.076 2.014.227 2.364.151.35.398.629.74.835.343.207.832.311 1.469.311.477.001 1.106-.054 1.886-.166z"/><circle cx="706.211" cy="832.327" r="5.933" fill="#FFF"/><circle cx="737.187" cy="832.327" r="5.933" fill="#FFF"/><circle cx="768.163" cy="832.327" r="5.933" fill="#FFF"/><path fill="#231F20" d="M679.655 183.474 524.964 359.893v-41.074l118.669-135.345zM922.787 183.474 524.964 637.177V424.942l211.724-241.468zM944.368 497.752v136.923L744.352 862.783H624.298z"/><linearGradient id="C" x1="734.664" x2="734.664" y1="153.019" y2="929.832" gradientUnits="userSpaceOnUse"><stop offset="0" stop-color="#dbecff"/><stop offset="1" stop-color="#c4e6ff"/></linearGradient><path fill="url(#C)" d="M908.699 126.274h-348.09c-23.638 0-42.788 19.151-42.788 42.784v652.86c0 12.892 5.721 24.474 14.763 32.323.303.254.606.514.91.771 7.381 6.072 16.839 9.69 27.116 9.69H908.7c10.276 0 19.736-3.618 27.116-9.69 9.577-7.849 15.694-19.762 15.694-33.094v-652.86c-.001-23.632-19.176-42.784-42.811-42.784zm33.741 678.969c0 24.814-21.271 44.927-47.512 44.927H574.403c-26.24 0-47.514-20.113-47.514-44.927V211.412c0-15.433 13.231-27.939 29.552-27.939h356.45c16.32 0 29.549 12.506 29.549 27.939v593.831z"/><linearGradient id="D" x1="879.946" x2="974.924" y1="140.883" y2="235.306" gradientUnits="userSpaceOnUse"><stop offset="0" stop-color="#ff7ace"/><stop offset="1" stop-color="#ff5296"/></linearGradient><circle cx="922.787" cy="183.473" r="61.653" fill="url(#D)"/><path fill="#FFF" d="m950.906 219.977 11.494-12.966-31.21-23.975 28.55-27.088-12.779-11.702-24.883 30.695-27.411-27.97-11.494 12.966 30.611 24.006-27.951 27.056 12.779 11.702 24.356-30.667 27.938 27.943z"/><path fill="#FFDBDB" d="M417.789 438.286s22.296-15.924 38.187-23.762c11.991-5.915 47.326-7.229 58.93 8.392 8.013 10.787-16.423 9.814-43.462 11.681-17.198 1.188-31.535 35.046-31.535 35.046l-22.12-31.357z"/><path fill="#39348A" d="M457.142 703.647c1.952-19.167-17.95-17.885-22.165-56.993-1.662-15.423 6.751-39.946 10.04-55.106 8.52-39.275-1.229-54.691 5.253-94.354 3.918-23.969 6.117-53.564 33.733-71.608 17.103-11.175 54.604-17.51 65.913 2.892 52.784 17.356 29.127 84.817 63.71 116.694 18.094 17.531 49.192 21.813 59.287 44.896 8.877 30.3-.81 46.965 32.479 66.613 10.019 6.408 23.985 13.237 30.496 23.193 36.152 55.283-40.438 79.911-50.195 83.835-76.485 51.509-70.145 28.475-150.406 36.403-70.884 22.914-87.327-6.31-78.145-96.465z"/><path fill="#39348A" d="M472.819 436.736c-25.869 25.867-30.192 64.877-31.033 99.735-.713 12.614.752 25.7-2.473 37.967-17.262 44.86-28.453 95.659 19.516 125.517-45.331-32.174-32.737-79.117-15.937-123.584 3.769-12.892 2.078-26.607 2.634-39.832.408-34.67 3.461-72.563 27.293-99.803zM549.916 428.478c67.033 26.433 36.383 97.116 69.328 129.586 25.932 16.703 25.504 55.662 53.536 70.926 38.108 19.899 87.274 32.579 71.582 87.274 12.935-35.048-7.581-60.638-38.684-74.787-13.446-7.235-28.613-11.845-39.804-22.505-17.992-16.714-19.9-45.157-39.536-60.525-3.838-2.546-7.483-5.612-10.152-9.391-9.58-14.308-9.815-32.802-13.754-49.238-4.476-30.582-20.627-62.617-52.516-71.34z"/><path fill="#FFD0D0" d="M832.561 744.525a98.834 98.834 0 0 1-5.069.64L815.67 723.6s2.172-1.726 4.454-4.412c2.004-2.358 4.084-5.456 4.842-8.766 1.609-7.09 3.832-23.602 11.031-23.964 7.191-.354-1.027 19.156 4.758 21.042 5.793 1.886 33.698-31.922 40.03-19.401 6.121 12.11-1.331 49.311-48.224 56.426z"/><linearGradient id="E" x1="301.367" x2="832.712" y1="644.268" y2="644.268" gradientUnits="userSpaceOnUse"><stop offset="0" stop-color="#ad88ff"/><stop offset="1" stop-color="#6038ba"/></linearGradient><path fill="url(#E)" d="M700.032 823.443c-34.775 13.894-67.932-21.245-97.454-47.613-2.392 28.702-4.526 62.093-4.127 88.122H422.642c-3.367-40.479-10.414-157.132-10.414-157.132s-23.918-26.545-49.513-58.142c-29.065-35.866-60.311-78.215-61.261-95.626-2.169-39.723 35.643-64.79 129.932-128.466l31.785 40.86c-.012 0-83.889 78.086-83.901 78.062l-8.325 7.761c20.084 19.369 77.722 51.131 77.722 51.131s11.537-3.236 20.835-6.847c10.587 1.407 58.834.258 68.964.622 21.198 3.599 55.592 20.622 69.028 35.864 14.304 18.15 52.954 69.153 83.38 118.818 3.048 6.285 8.758 13.05 16.309 9.016 23.18-10.048 77.019-33.79 100.984-44.155 4.561-2.005 9.931-.188 12.346 4.092 3.963 7.598 9.825 15.688 12.053 24.716 4.936 12.72-117.257 76.408-132.534 78.917z"/><path fill="#DAC6F2" d="M779.352 784.337c-.935.556-1.878 1.12-2.821 1.675-.977.573-1.962 1.154-2.947 1.726a629.458 629.458 0 0 1-4.799 2.795c-.935.539-1.869 1.078-2.812 1.617-22.828 13.06-47.179 25.489-65.94 31.29-1.061.329-2.105.64-3.124.926-3.023.834-5.877 1.482-8.53 1.903a43.129 43.129 0 0 1-3.073.404c-2.038.211-3.924.253-5.659.126-18.07-1.313-43.399-20.209-65.106-39.786a483.643 483.643 0 0 1-12.875-12.066c-.135-.126-.27-.261-.396-.387.598-4.261 7.099-50.455 7.099-55.482 0 0 8.791 26.802 21.53 53.604 12.74 26.793 43.93 31.189 58.867 39.095 3.124 1.65 6.585 1.979 10.281 1.448 13.969-2.029 31.282-16.411 46.388-18.146 8.421-.966 21.691-5.724 33.917-10.742zM383.398 562.599a161.122 161.122 0 0 0-10.573-.61c-19.71-.455-35.354-16.995-35.354-16.995 19.124 6.123 35.797.909 41.801-1.483l-8.324 7.762c3.683 3.623 7.893 7.427 12.45 11.326zM566.634 613.339c.025 9.894-6.868 20.404-20.496 31.241-9.591 7.627-20.791 13.863-26.075 15.49a17.256 17.256 0 0 1-5.107.759c-8.958 0-17.453-6.868-23.176-12.877-5.537 5.571-13.661 11.749-22.434 11.749-1.871 0-3.7-.278-5.444-.818-14.487-4.534-32.35-25.494-31.258-40.831.476-6.686 11.028-14.125 16.025-15.649 7.384-2.253 15.046-4.546 20.917-6.878l4.075.641c.177 1.492.893 6.211 3.345 10.695 3.464 6.346 8.638 9.295 16.282 9.295 15.591 0 28.553-12.844 34.553-19.981h10.619c6.86 1.239 15.456 3.026 24.381 5.427 2.882 4.043 3.776 8.181 3.793 11.737z"/><path fill="#FFF" d="M469.586 595.528s-30.633 9.244-28.63 21.117c2.262 13.411 15.053 30.936 25.462 34.189 11.444 3.576 25.463-15.947 25.463-15.947s14.547 20.561 25.705 17.128c11.158-3.433 71.024-40.703 20.871-55.846 0 0-18.727 28.416-45.169 28.416-26.441-.001-23.702-29.057-23.702-29.057z"/><path fill="#FFD0D0" d="M538.461 596.172c-28.735 44.832-78.329 38.969-69.14-1.174 1.677-7.327 4.839-23.24 6.53-30.332l.225-.941c2.888-12.184 5.499-23.86 5.499-23.86l39.586-5.624 9.742-1.381 10.586-1.504c-.505.945-.98 2.059-1.425 3.315-3.906 11.102-5.451 33.383-6.067 49.061-.389 10.016 4.464 12.44 4.464 12.44z"/><path fill="#F5B3B3" d="M533.996 583.732c-.932-9.287-6.665-18.361-15.718-14.288-15.472 6.961-38.448 1.246-42.428-4.778 0 0 35.236-23.789 45.31-30.425 2.086-1.376 3.358-2.224 3.447-2.296.19-.168 2.879.272 6.295.915 2.888.537 6.298 1.222 9.161 1.81-3.907 11.103-5.451 33.384-6.067 49.062z"/><path fill="#FFD0D0" d="M548.079 535.899c-.961.149-1.886.171-2.993.281l.488-1.789 4.84-19.406c2.833-3.619 5.159-7.651 7.274-12.015l.035-.128c4.025-.685 10.263-1.041 14.778 2.664 6.02 4.939 6.686 26.673-24.422 30.393z"/><path fill="#F5B3B3" d="M549.942 528.438c-.658.034-1.284-.015-2.038-.018l.454-1.172 4.612-12.752c2.162-2.244 4.01-4.801 5.74-7.598l.032-.084c2.762-.182 6.994.011 9.782 2.823 3.716 3.749 2.656 18.453-18.582 18.801z"/><path fill="#FFD0D0" d="M566.503 494.166c-10.617 39.052-47.5 82.287-90.653 70.501-50.025-13.664-37.435-109.066 4.372-146.618 29.612 14.476 50.267 22.6 82.296 26.797 3.919 14.43 8.051 33.51 3.985 49.32z"/><path fill="#39348A" d="M443.544 504.074c-6.951-56.047 26.248-90.807 45.992-88.453-10.837 32.247-37.377 53.048-45.992 88.453z"/><path fill="#39348A" d="M538.173 549.491c33.401-77.955-66.755-67.282-59.709-129.016 15.759-15.958 78.121-8.405 90.248 25.155 8.423 23.31 9.128 72.427-30.539 103.861z"/><path fill="#39348A" d="M505.267 442.036c4.365 36.731 62.379 34.299 44.267 76.122 13.307-42.889-42.231-35.338-44.267-76.122zM478.678 424.272c10.3 44.465-52.386 63.264-44.399 108.131-9.35-52.522 51.465-64.034 44.399-108.131z"/><path fill="#39348A" d="M477.068 484.293c-2.69-1.429-5.769-1.821-8.781-1.724a21.77 21.77 0 0 0-4.298.568c-1.475.348-3.364.724-4.556 1.714-1.309 1.088-.533 3.67 1.36 3.268 1.423-.302 2.733-1.123 4.128-1.563 1.193-.377 2.434-.611 3.677-.751 2.662-.3 5.322-.014 7.961.349 1.14.156 1.444-1.365.509-1.861zM505.217 489.135c3.276-.461 6.564.281 9.603 1.496a23.662 23.662 0 0 1 4.177 2.173c1.376.902 3.165 1.987 4.015 3.439.933 1.596-.817 3.943-2.6 2.831-1.341-.836-2.373-2.159-3.634-3.126-1.078-.827-2.258-1.527-3.474-2.13-2.606-1.293-5.427-1.988-8.256-2.595-1.223-.262-.97-1.928.169-2.088z"/><path fill="#FFE0E0" d="M475.202 500.904c-1.948 4.36-6.495 6.581-10.156 4.96-3.661-1.621-5.051-6.47-3.103-10.83 1.947-4.36 6.494-6.581 10.156-4.96 3.661 1.621 5.051 6.47 3.103 10.83z"/><path fill="#414591" d="M473.781 500.275c-1.53 3.426-5.103 5.171-7.98 3.897-2.877-1.274-3.969-5.084-2.439-8.51 1.531-3.426 5.103-5.171 7.98-3.897 2.877 1.274 3.969 5.084 2.439 8.51z"/><path fill="#191B36" d="M471.84 499.415c-.96 2.149-3.201 3.243-5.006 2.445-1.804-.799-2.49-3.188-1.53-5.337.96-2.149 3.201-3.244 5.005-2.445 1.806.798 2.49 3.188 1.531 5.337z"/><path fill="#FFF" d="M466.015 494.21a1.59 1.59 0 0 1 2.096-.798 1.576 1.576 0 0 1 .808 2.084 1.59 1.59 0 0 1-2.096.798 1.578 1.578 0 0 1-.808-2.084zM468.408 501.148a.711.711 0 0 1 .936-.357.706.706 0 1 1-.575 1.288.704.704 0 0 1-.361-.931z"/><path fill="#F5B3B3" d="M487.583 518.91c-.509-.824-1.527-.824-2.392-.912-.67-.068-1.384-.118-1.997-.42-.449-.221-.93-.582-.895-1.137.034-.549.507-1.052.843-1.45.957-1.134 1.921-2.223 2.509-3.605.556-1.305 1.368-2.978 1.116-4.429-.107-.617-1.003-.614-1.273-.138-.409.722-.515 1.645-.842 2.416-.318.749-.74 1.406-1.197 2.075-.915 1.339-2.392 2.351-3.039 3.86-.717 1.676.006 3.364 1.555 4.242.749.425 1.579.597 2.425.695.904.105 2.071.455 2.901-.003.41-.225.523-.809.286-1.194z"/><path fill="#FFE0E0" d="M500.991 504.373c-1.34 4.582.692 9.202 4.539 10.318 3.847 1.116 8.052-1.694 9.392-6.276 1.34-4.582-.692-9.202-4.539-10.319-3.847-1.116-8.051 1.695-9.392 6.277z"/><path fill="#414591" d="M502.484 504.806c-1.053 3.601.543 7.23 3.566 8.108 3.022.877 6.326-1.331 7.379-4.931 1.053-3.601-.544-7.231-3.566-8.108-3.022-.877-6.326 1.33-7.379 4.931z"/><path fill="#191B36" d="M504.524 505.398c-.661 2.259.341 4.535 2.237 5.086 1.896.55 3.968-.835 4.628-3.093.661-2.258-.341-4.535-2.237-5.085s-3.967.833-4.628 3.092z"/><path fill="#FFF" d="M512.345 505.167a1.579 1.579 0 0 0-1.083-1.957 1.587 1.587 0 0 0-1.969 1.072 1.58 1.58 0 0 0 1.083 1.957 1.586 1.586 0 0 0 1.969-1.072zM508.414 510.164a.659.659 0 1 1 1.284.296.659.659 0 0 1-1.284-.296z"/><path fill="#E69191" d="M490.051 531.299a10.787 10.787 0 0 0-1.915-1.105 11.793 11.793 0 0 0-4.696-1.024 12.019 12.019 0 0 0-4.537.841c-.752.301-1.495.651-2.164 1.112-.53.364-1.045 1.37-.302 1.828.607.374 1.143.106 1.74-.126a10.69 10.69 0 0 1 1.824-.519 8.532 8.532 0 0 1 3.443.043c1.136.252 1.977.628 2.972 1.205.546.316.884.551 1.235.854.689.595 1.344 1.308 2.342 1.222 1.018-.088 1.695-.746 1.777-1.777.097-1.198-.855-1.93-1.719-2.554z"/><path fill="#DAC6F2" d="M412.228 706.818s-23.918-26.545-49.513-58.142c19.369 15.101 39.132 34.922 40.009 30.349 4.358-22.71 16.515-37.618 16.515-37.618-10.551 36.241-7.011 65.411-7.011 65.411z"/><linearGradient id="F" x1="703.396" x2="641.196" y1="918.528" y2="869.657" gradientTransform="rotate(14.471 2625.481 -509.976)" gradientUnits="userSpaceOnUse"><stop offset="0" stop-color="#ff5c9c"/><stop offset="1" stop-color="#ff7ace"/></linearGradient><path fill="url(#F)" d="m397.902 360.458-19.41 16.105-1.611-1.941c-2.741-3.303-4.591-6.295-5.551-8.977-.96-2.682-1.406-5.488-1.337-8.42.069-2.932.911-8.69 2.527-17.275.894-4.536.563-7.74-.991-9.613-1.554-1.873-3.315-2.869-5.283-2.99-1.968-.12-4.076.752-6.324 2.616-2.418 2.006-3.754 4.466-4.01 7.38-.255 2.914 1.048 6.547 3.911 10.898l-21.852 13.992c-5.365-7.852-7.584-15.914-6.657-24.186.927-8.272 6.158-16.364 15.692-24.275 7.423-6.159 14.702-9.582 21.836-10.27 9.672-.954 17.405 2.06 23.197 9.04 2.402 2.894 3.918 6.351 4.55 10.369.632 4.018.089 10.016-1.628 17.995-1.179 5.578-1.535 9.567-1.067 11.967.468 2.401 1.804 4.929 4.008 7.585zm-15.794 21.814 20.789-17.249 15.214 18.337-20.789 17.249-15.214-18.337z"/><linearGradient id="G" x1="8115.648" x2="8210.845" y1="227.568" y2="227.568" gradientTransform="rotate(47.631 4209.783 -8461.774)" gradientUnits="userSpaceOnUse"><stop offset="0" stop-color="#ffca59"/><stop offset="1" stop-color="#ff8f5c"/></linearGradient><path fill="url(#G)" d="m461.873 287.137 4.797 43.052-16.773 3.973-15.148-40.6-4.933-20.827 27.125-6.425 4.932 20.827zm15.784 70.808-25.316 5.996-5.302-22.385 25.316-5.996 5.302 22.385z"/><path fill="#1F1C80" d="M1173.431 863.95H271.203a1.312 1.312 0 0 0 0 2.624h902.228a1.311 1.311 0 1 0 0-2.624zM250.245 866.574h-59.676a1.312 1.312 0 0 1 0-2.624h59.676a1.312 1.312 0 0 1 0 2.624zM994.084 907.96H759.049a1.311 1.311 0 1 1 0-2.624h235.035a1.313 1.313 0 0 1 0 2.624zM1080.382 907.96h-59.676a1.311 1.311 0 1 1 0-2.624h59.676a1.313 1.313 0 0 1 0 2.624z"/><linearGradient id="H" x1="948.54" x2="1009.27" y1="111.759" y2="172.133" gradientUnits="userSpaceOnUse"><stop offset="0" stop-color="#ff7ace"/><stop offset="1" stop-color="#ff5296"/></linearGradient><path fill="url(#H)" d="M992.391 142.254c-6.344-9.808-15.213-17.916-25.395-23.615-5.797-3.245-11.824-5.291-18.326-6.596-.764-.153-1.058.909-.322 1.166 5.248 1.834 10.339 4.407 15.15 7.182a70.702 70.702 0 0 1 13.122 9.737c8.118 7.637 14.5 17.255 18.268 27.752 2.128 5.93 3.538 12.162 4.074 18.441.27 3.169 5.245 3.204 4.983 0-.992-12.118-4.945-23.848-11.554-34.067z"/><linearGradient id="I" x1="990.321" x2="1000.895" y1="201.566" y2="212.078" gradientUnits="userSpaceOnUse"><stop offset="0" stop-color="#ff7ace"/><stop offset="1" stop-color="#ff5296"/></linearGradient><path fill="url(#I)" d="M1000.799 195.518c-.1-.924-.045-2.321-.836-2.941-.159-.125-.411-.216-.599-.077-.741.547-.772 1.412-.982 2.267a78.784 78.784 0 0 0-.722 3.334 46.837 46.837 0 0 1-1.828 6.652c-1.547 4.31-3.638 8.401-6.324 12.111-1.795 2.479 2.431 5.018 4.144 2.423 2.677-4.055 4.794-8.542 5.952-13.27a48.197 48.197 0 0 0 1.17-7.061c.105-1.145.15-2.295.025-3.438z"/><linearGradient id="J" x1="1085.465" x2="1101.545" y1="635.093" y2="645.656" gradientUnits="userSpaceOnUse"><stop offset="0" stop-color="#ff7ace"/><stop offset="1" stop-color="#ff5296"/></linearGradient><path fill="url(#J)" d="M1099.665 637.744c.404.652.533 1.439.344 2.213a2.882 2.882 0 0 1-2.012 2.103l-9.752 2.844a2.883 2.883 0 0 1-2.828-.691 2.887 2.887 0 0 1-.815-2.794l2.413-9.867c.25-1.022 1.002-1.808 2.012-2.103s2.067-.036 2.827.692l7.339 7.023c.185.176.343.371.472.58zm-12.763 4.686a.69.69 0 0 0 .102.126c.077.074.29.236.598.146l9.752-2.844c.308-.09.4-.341.426-.445a.603.603 0 0 0-.172-.591l-7.339-7.023a.604.604 0 0 0-.598-.146.606.606 0 0 0-.426.445l-2.412 9.867a.59.59 0 0 0 .069.465z"/><linearGradient id="K" x1="259.511" x2="275.592" y1="441.752" y2="452.314" gradientUnits="userSpaceOnUse"><stop offset="0" stop-color="#ff7ace"/><stop offset="1" stop-color="#ff5296"/></linearGradient><path fill="url(#K)" d="M273.712 444.402c.404.652.533 1.439.344 2.213a2.882 2.882 0 0 1-2.012 2.103l-9.752 2.844a2.883 2.883 0 0 1-2.828-.691 2.886 2.886 0 0 1-.815-2.794l2.413-9.867a2.879 2.879 0 0 1 2.012-2.103 2.881 2.881 0 0 1 2.827.692l7.339 7.023c.185.176.343.371.472.58zm-12.763 4.686a.65.65 0 0 0 .102.126c.077.074.29.236.598.146l9.752-2.844c.308-.09.4-.341.426-.445a.603.603 0 0 0-.172-.591l-7.339-7.023a.604.604 0 0 0-.598-.146.604.604 0 0 0-.426.445l-2.413 9.867a.592.592 0 0 0 .07.465z"/><linearGradient id="L" x1="1053.342" x2="1064.087" y1="230.447" y2="242.819" gradientUnits="userSpaceOnUse"><stop offset="0" stop-color="#ffca59"/><stop offset="1" stop-color="#ff8f5c"/></linearGradient><path fill="url(#L)" d="m1060.168 234.918 3.587-3.587a2.086 2.086 0 0 0-2.948-2.949l-3.587 3.587-3.587-3.587a2.085 2.085 0 1 0-2.948 2.949l3.587 3.587-3.58 3.581a2.084 2.084 0 1 0 2.948 2.949l3.581-3.581 3.581 3.581a2.08 2.08 0 0 0 2.948 0 2.084 2.084 0 0 0 0-2.949l-3.582-3.581z"/><linearGradient id="M" x1="349.411" x2="360.156" y1="721.754" y2="734.126" gradientUnits="userSpaceOnUse"><stop offset="0" stop-color="#ffca59"/><stop offset="1" stop-color="#ff8f5c"/></linearGradient><path fill="url(#M)" d="m356.237 726.226 3.587-3.587a2.085 2.085 0 0 0-2.948-2.948l-3.587 3.587-3.587-3.587a2.085 2.085 0 0 0-2.948 2.948l3.587 3.587-3.581 3.581a2.085 2.085 0 0 0 2.948 2.948l3.581-3.581 3.581 3.581a2.08 2.08 0 0 0 2.948 0 2.083 2.083 0 0 0 0-2.948l-3.581-3.581z"/><path fill="#39348A" d="M989.073 373.927c-4.518 0-8.193-3.675-8.193-8.193s3.675-8.193 8.193-8.193 8.193 3.675 8.193 8.193c0 4.517-3.676 8.193-8.193 8.193zm0-13.822a5.635 5.635 0 0 0-5.629 5.629c0 3.104 2.526 5.629 5.629 5.629s5.629-2.525 5.629-5.629a5.636 5.636 0 0 0-5.629-5.629zM400.11 229.801c-4.518 0-8.193-3.675-8.193-8.193s3.675-8.193 8.193-8.193c4.517 0 8.193 3.675 8.193 8.193s-3.676 8.193-8.193 8.193zm0-13.822a5.635 5.635 0 0 0-5.629 5.629 5.635 5.635 0 0 0 5.629 5.629 5.635 5.635 0 0 0 5.629-5.629 5.636 5.636 0 0 0-5.629-5.629z"/><linearGradient id="N" x1="335.828" x2="333.811" y1="309.653" y2="307.011" gradientUnits="userSpaceOnUse"><stop offset="0" stop-color="#ff5c9c"/><stop offset="1" stop-color="#ff7ace"/></linearGradient><path fill="url(#N)" d="M338.8 304.485c-.254-.319-.633-.361-.992-.198-.372.168-.77.325-1.11.55-.312.206-.61.436-.907.663a28.479 28.479 0 0 0-1.985 1.652 25.681 25.681 0 0 0-1.668 1.681c-.312.345-.614.696-.895 1.065-.297.389-.468.802-.637 1.258-.162.436.104 1.034.508 1.247.459.242.95.16 1.338-.173.348-.299.629-.597.906-.966.236-.315.465-.635.7-.951l.014-.02.038-.047.177-.222a26.578 26.578 0 0 1 1.145-1.328 25.53 25.53 0 0 1 1.601-1.589c.291-.264.601-.51.892-.773.287-.26.542-.564.817-.838a.773.773 0 0 0 .058-1.011z"/><linearGradient id="O" x1="337.007" x2="316.165" y1="352.955" y2="325.663" gradientUnits="userSpaceOnUse"><stop offset="0" stop-color="#ff5c9c"/><stop offset="1" stop-color="#ff7ace"/></linearGradient><path fill="url(#O)" d="M328.857 317.319c.246-.519-.448-1.191-.863-.666-9.518 12.023-10.391 30.193-4.505 44.007.395.927 1.742 1.113 2.531.664.957-.545 1.053-1.617.664-2.531-2.811-6.599-4.098-13.643-3.628-20.808.475-7.227 2.706-14.156 5.801-20.666z"/><linearGradient id="P" x1="468.23" x2="474.967" y1="294.864" y2="294.864" gradientUnits="userSpaceOnUse"><stop offset="0" stop-color="#ffca59"/><stop offset="1" stop-color="#ff8f5c"/></linearGradient><path fill="url(#P)" d="M474.943 311.305c-.848-5.862-1.51-11.747-2.336-17.612-.4-2.838-.776-5.69-1.31-8.507-.518-2.729-.708-5.992-2.01-8.469-.192-.364-.87-.319-.938.122-.422 2.771.396 5.878.701 8.651.314 2.851.739 5.69 1.089 8.537.724 5.888 1.392 11.776 1.674 17.702.108 2.276 3.466 1.902 3.13-.424z"/><linearGradient id="Q" x1="473.651" x2="476.538" y1="322.778" y2="322.778" gradientUnits="userSpaceOnUse"><stop offset="0" stop-color="#ffca59"/><stop offset="1" stop-color="#ff8f5c"/></linearGradient><path fill="url(#Q)" d="M476.362 325.132c-.046-.091-.116-.195-.154-.296a2.136 2.136 0 0 0-.023-.268l-.135-.819c-.094-.569-.185-1.134-.318-1.696-.26-1.098-.515-2.188-.714-3.298-.139-.773-1.4-.593-1.367.185.048 1.133.036 2.258.022 3.392-.007.556.024 1.106.055 1.661l.047.831c.004.058.022.349.027.31l-.023.092-.064.251c-.256 1 .567 1.944 1.589 1.807 1.048-.14 1.518-1.246 1.058-2.152z"/></svg>