<?xml version="1.0" encoding="iso-8859-1"?>
<!-- Uploaded to: SVG Repo, www.svgrepo.com, Generator: SVG Repo Mixer Tools -->
<svg fill="white" height="800px" width="800px" version="1.1" id="Layer_1" xmlns="http://www.w3.org/2000/svg" xmlns:xlink="http://www.w3.org/1999/xlink" 
	 viewBox="0 0 512 512" xml:space="preserve">
<g>
	<g>
		<path d="M501.333,245.333H266.667V10.667C266.667,4.776,261.891,0,256,0c-5.891,0-10.667,4.776-10.667,10.667v234.667H10.667
			C4.776,245.333,0,250.109,0,256c0,5.891,4.776,10.667,10.667,10.667h234.667v234.667c0,5.891,4.776,10.667,10.667,10.667
			c5.891,0,10.667-4.776,10.667-10.667V266.667h234.667c5.891,0,10.667-4.776,10.667-10.667
			C512,250.109,507.224,245.333,501.333,245.333z"/>
	</g>
</g>
</svg>